%TF.GenerationSoftware,KiCad,Pcbnew,9.0.0*%
%TF.CreationDate,2025-07-02T21:05:00+02:00*%
%TF.ProjectId,PCK-HALL,50434b2d-4841-44c4-9c2e-6b696361645f,rev?*%
%TF.SameCoordinates,Original*%
%TF.FileFunction,Legend,Top*%
%TF.FilePolarity,Positive*%
%FSLAX46Y46*%
G04 Gerber Fmt 4.6, Leading zero omitted, Abs format (unit mm)*
G04 Created by KiCad (PCBNEW 9.0.0) date 2025-07-02 21:05:00*
%MOMM*%
%LPD*%
G01*
G04 APERTURE LIST*
%ADD10C,0.150000*%
%ADD11C,0.200000*%
G04 APERTURE END LIST*
D10*
X98514141Y-103571752D02*
X98752236Y-104238419D01*
X98752236Y-104238419D02*
X98990331Y-103571752D01*
X99895093Y-104238419D02*
X99323665Y-104238419D01*
X99609379Y-104238419D02*
X99609379Y-103238419D01*
X99609379Y-103238419D02*
X99514141Y-103381276D01*
X99514141Y-103381276D02*
X99418903Y-103476514D01*
X99418903Y-103476514D02*
X99323665Y-103524133D01*
X100323665Y-104143180D02*
X100371284Y-104190800D01*
X100371284Y-104190800D02*
X100323665Y-104238419D01*
X100323665Y-104238419D02*
X100276046Y-104190800D01*
X100276046Y-104190800D02*
X100323665Y-104143180D01*
X100323665Y-104143180D02*
X100323665Y-104238419D01*
X100990331Y-103238419D02*
X101085569Y-103238419D01*
X101085569Y-103238419D02*
X101180807Y-103286038D01*
X101180807Y-103286038D02*
X101228426Y-103333657D01*
X101228426Y-103333657D02*
X101276045Y-103428895D01*
X101276045Y-103428895D02*
X101323664Y-103619371D01*
X101323664Y-103619371D02*
X101323664Y-103857466D01*
X101323664Y-103857466D02*
X101276045Y-104047942D01*
X101276045Y-104047942D02*
X101228426Y-104143180D01*
X101228426Y-104143180D02*
X101180807Y-104190800D01*
X101180807Y-104190800D02*
X101085569Y-104238419D01*
X101085569Y-104238419D02*
X100990331Y-104238419D01*
X100990331Y-104238419D02*
X100895093Y-104190800D01*
X100895093Y-104190800D02*
X100847474Y-104143180D01*
X100847474Y-104143180D02*
X100799855Y-104047942D01*
X100799855Y-104047942D02*
X100752236Y-103857466D01*
X100752236Y-103857466D02*
X100752236Y-103619371D01*
X100752236Y-103619371D02*
X100799855Y-103428895D01*
X100799855Y-103428895D02*
X100847474Y-103333657D01*
X100847474Y-103333657D02*
X100895093Y-103286038D01*
X100895093Y-103286038D02*
X100990331Y-103238419D01*
X89693979Y-96923219D02*
X89693979Y-95923219D01*
X89693979Y-96399409D02*
X90265407Y-96399409D01*
X90265407Y-96923219D02*
X90265407Y-95923219D01*
X90693979Y-96637504D02*
X91170169Y-96637504D01*
X90598741Y-96923219D02*
X90932074Y-95923219D01*
X90932074Y-95923219D02*
X91265407Y-96923219D01*
X92074931Y-96923219D02*
X91598741Y-96923219D01*
X91598741Y-96923219D02*
X91598741Y-95923219D01*
X92884455Y-96923219D02*
X92408265Y-96923219D01*
X92408265Y-96923219D02*
X92408265Y-95923219D01*
X93932075Y-96875600D02*
X94074932Y-96923219D01*
X94074932Y-96923219D02*
X94313027Y-96923219D01*
X94313027Y-96923219D02*
X94408265Y-96875600D01*
X94408265Y-96875600D02*
X94455884Y-96827980D01*
X94455884Y-96827980D02*
X94503503Y-96732742D01*
X94503503Y-96732742D02*
X94503503Y-96637504D01*
X94503503Y-96637504D02*
X94455884Y-96542266D01*
X94455884Y-96542266D02*
X94408265Y-96494647D01*
X94408265Y-96494647D02*
X94313027Y-96447028D01*
X94313027Y-96447028D02*
X94122551Y-96399409D01*
X94122551Y-96399409D02*
X94027313Y-96351790D01*
X94027313Y-96351790D02*
X93979694Y-96304171D01*
X93979694Y-96304171D02*
X93932075Y-96208933D01*
X93932075Y-96208933D02*
X93932075Y-96113695D01*
X93932075Y-96113695D02*
X93979694Y-96018457D01*
X93979694Y-96018457D02*
X94027313Y-95970838D01*
X94027313Y-95970838D02*
X94122551Y-95923219D01*
X94122551Y-95923219D02*
X94360646Y-95923219D01*
X94360646Y-95923219D02*
X94503503Y-95970838D01*
X94932075Y-96399409D02*
X95265408Y-96399409D01*
X95408265Y-96923219D02*
X94932075Y-96923219D01*
X94932075Y-96923219D02*
X94932075Y-95923219D01*
X94932075Y-95923219D02*
X95408265Y-95923219D01*
X95836837Y-96923219D02*
X95836837Y-95923219D01*
X95836837Y-95923219D02*
X96408265Y-96923219D01*
X96408265Y-96923219D02*
X96408265Y-95923219D01*
X96836837Y-96875600D02*
X96979694Y-96923219D01*
X96979694Y-96923219D02*
X97217789Y-96923219D01*
X97217789Y-96923219D02*
X97313027Y-96875600D01*
X97313027Y-96875600D02*
X97360646Y-96827980D01*
X97360646Y-96827980D02*
X97408265Y-96732742D01*
X97408265Y-96732742D02*
X97408265Y-96637504D01*
X97408265Y-96637504D02*
X97360646Y-96542266D01*
X97360646Y-96542266D02*
X97313027Y-96494647D01*
X97313027Y-96494647D02*
X97217789Y-96447028D01*
X97217789Y-96447028D02*
X97027313Y-96399409D01*
X97027313Y-96399409D02*
X96932075Y-96351790D01*
X96932075Y-96351790D02*
X96884456Y-96304171D01*
X96884456Y-96304171D02*
X96836837Y-96208933D01*
X96836837Y-96208933D02*
X96836837Y-96113695D01*
X96836837Y-96113695D02*
X96884456Y-96018457D01*
X96884456Y-96018457D02*
X96932075Y-95970838D01*
X96932075Y-95970838D02*
X97027313Y-95923219D01*
X97027313Y-95923219D02*
X97265408Y-95923219D01*
X97265408Y-95923219D02*
X97408265Y-95970838D01*
X98027313Y-95923219D02*
X98217789Y-95923219D01*
X98217789Y-95923219D02*
X98313027Y-95970838D01*
X98313027Y-95970838D02*
X98408265Y-96066076D01*
X98408265Y-96066076D02*
X98455884Y-96256552D01*
X98455884Y-96256552D02*
X98455884Y-96589885D01*
X98455884Y-96589885D02*
X98408265Y-96780361D01*
X98408265Y-96780361D02*
X98313027Y-96875600D01*
X98313027Y-96875600D02*
X98217789Y-96923219D01*
X98217789Y-96923219D02*
X98027313Y-96923219D01*
X98027313Y-96923219D02*
X97932075Y-96875600D01*
X97932075Y-96875600D02*
X97836837Y-96780361D01*
X97836837Y-96780361D02*
X97789218Y-96589885D01*
X97789218Y-96589885D02*
X97789218Y-96256552D01*
X97789218Y-96256552D02*
X97836837Y-96066076D01*
X97836837Y-96066076D02*
X97932075Y-95970838D01*
X97932075Y-95970838D02*
X98027313Y-95923219D01*
X99455884Y-96923219D02*
X99122551Y-96447028D01*
X98884456Y-96923219D02*
X98884456Y-95923219D01*
X98884456Y-95923219D02*
X99265408Y-95923219D01*
X99265408Y-95923219D02*
X99360646Y-95970838D01*
X99360646Y-95970838D02*
X99408265Y-96018457D01*
X99408265Y-96018457D02*
X99455884Y-96113695D01*
X99455884Y-96113695D02*
X99455884Y-96256552D01*
X99455884Y-96256552D02*
X99408265Y-96351790D01*
X99408265Y-96351790D02*
X99360646Y-96399409D01*
X99360646Y-96399409D02*
X99265408Y-96447028D01*
X99265408Y-96447028D02*
X98884456Y-96447028D01*
X100503504Y-96256552D02*
X100884456Y-96256552D01*
X100646361Y-96923219D02*
X100646361Y-96066076D01*
X100646361Y-96066076D02*
X100693980Y-95970838D01*
X100693980Y-95970838D02*
X100789218Y-95923219D01*
X100789218Y-95923219D02*
X100884456Y-95923219D01*
X101360647Y-96923219D02*
X101265409Y-96875600D01*
X101265409Y-96875600D02*
X101217790Y-96827980D01*
X101217790Y-96827980D02*
X101170171Y-96732742D01*
X101170171Y-96732742D02*
X101170171Y-96447028D01*
X101170171Y-96447028D02*
X101217790Y-96351790D01*
X101217790Y-96351790D02*
X101265409Y-96304171D01*
X101265409Y-96304171D02*
X101360647Y-96256552D01*
X101360647Y-96256552D02*
X101503504Y-96256552D01*
X101503504Y-96256552D02*
X101598742Y-96304171D01*
X101598742Y-96304171D02*
X101646361Y-96351790D01*
X101646361Y-96351790D02*
X101693980Y-96447028D01*
X101693980Y-96447028D02*
X101693980Y-96732742D01*
X101693980Y-96732742D02*
X101646361Y-96827980D01*
X101646361Y-96827980D02*
X101598742Y-96875600D01*
X101598742Y-96875600D02*
X101503504Y-96923219D01*
X101503504Y-96923219D02*
X101360647Y-96923219D01*
X102122552Y-96923219D02*
X102122552Y-96256552D01*
X102122552Y-96447028D02*
X102170171Y-96351790D01*
X102170171Y-96351790D02*
X102217790Y-96304171D01*
X102217790Y-96304171D02*
X102313028Y-96256552D01*
X102313028Y-96256552D02*
X102408266Y-96256552D01*
X103503505Y-96923219D02*
X103503505Y-95923219D01*
X103503505Y-95923219D02*
X103884457Y-95923219D01*
X103884457Y-95923219D02*
X103979695Y-95970838D01*
X103979695Y-95970838D02*
X104027314Y-96018457D01*
X104027314Y-96018457D02*
X104074933Y-96113695D01*
X104074933Y-96113695D02*
X104074933Y-96256552D01*
X104074933Y-96256552D02*
X104027314Y-96351790D01*
X104027314Y-96351790D02*
X103979695Y-96399409D01*
X103979695Y-96399409D02*
X103884457Y-96447028D01*
X103884457Y-96447028D02*
X103503505Y-96447028D01*
X105074933Y-96827980D02*
X105027314Y-96875600D01*
X105027314Y-96875600D02*
X104884457Y-96923219D01*
X104884457Y-96923219D02*
X104789219Y-96923219D01*
X104789219Y-96923219D02*
X104646362Y-96875600D01*
X104646362Y-96875600D02*
X104551124Y-96780361D01*
X104551124Y-96780361D02*
X104503505Y-96685123D01*
X104503505Y-96685123D02*
X104455886Y-96494647D01*
X104455886Y-96494647D02*
X104455886Y-96351790D01*
X104455886Y-96351790D02*
X104503505Y-96161314D01*
X104503505Y-96161314D02*
X104551124Y-96066076D01*
X104551124Y-96066076D02*
X104646362Y-95970838D01*
X104646362Y-95970838D02*
X104789219Y-95923219D01*
X104789219Y-95923219D02*
X104884457Y-95923219D01*
X104884457Y-95923219D02*
X105027314Y-95970838D01*
X105027314Y-95970838D02*
X105074933Y-96018457D01*
X105503505Y-96923219D02*
X105503505Y-95923219D01*
X106074933Y-96923219D02*
X105646362Y-96351790D01*
X106074933Y-95923219D02*
X105503505Y-96494647D01*
X106503505Y-96542266D02*
X107265410Y-96542266D01*
X107693981Y-96875600D02*
X107836838Y-96923219D01*
X107836838Y-96923219D02*
X108074933Y-96923219D01*
X108074933Y-96923219D02*
X108170171Y-96875600D01*
X108170171Y-96875600D02*
X108217790Y-96827980D01*
X108217790Y-96827980D02*
X108265409Y-96732742D01*
X108265409Y-96732742D02*
X108265409Y-96637504D01*
X108265409Y-96637504D02*
X108217790Y-96542266D01*
X108217790Y-96542266D02*
X108170171Y-96494647D01*
X108170171Y-96494647D02*
X108074933Y-96447028D01*
X108074933Y-96447028D02*
X107884457Y-96399409D01*
X107884457Y-96399409D02*
X107789219Y-96351790D01*
X107789219Y-96351790D02*
X107741600Y-96304171D01*
X107741600Y-96304171D02*
X107693981Y-96208933D01*
X107693981Y-96208933D02*
X107693981Y-96113695D01*
X107693981Y-96113695D02*
X107741600Y-96018457D01*
X107741600Y-96018457D02*
X107789219Y-95970838D01*
X107789219Y-95970838D02*
X107884457Y-95923219D01*
X107884457Y-95923219D02*
X108122552Y-95923219D01*
X108122552Y-95923219D02*
X108265409Y-95970838D01*
X108551124Y-95923219D02*
X109122552Y-95923219D01*
X108836838Y-96923219D02*
X108836838Y-95923219D01*
X109979695Y-96923219D02*
X109408267Y-96923219D01*
X109693981Y-96923219D02*
X109693981Y-95923219D01*
X109693981Y-95923219D02*
X109598743Y-96066076D01*
X109598743Y-96066076D02*
X109503505Y-96161314D01*
X109503505Y-96161314D02*
X109408267Y-96208933D01*
D11*
%TO.C,IC1*%
X98150000Y-98400000D02*
X99350000Y-98400000D01*
X99700000Y-98550000D02*
X100300000Y-98550000D01*
X99700000Y-101450000D02*
X99700000Y-98550000D01*
X100300000Y-98550000D02*
X100300000Y-101450000D01*
X100300000Y-101450000D02*
X99700000Y-101450000D01*
%TD*%
M02*
