%TF.GenerationSoftware,KiCad,Pcbnew,9.0.0*%
%TF.CreationDate,2025-07-02T21:05:00+02:00*%
%TF.ProjectId,PCK-HALL,50434b2d-4841-44c4-9c2e-6b696361645f,rev?*%
%TF.SameCoordinates,Original*%
%TF.FileFunction,Copper,L2,Bot*%
%TF.FilePolarity,Positive*%
%FSLAX46Y46*%
G04 Gerber Fmt 4.6, Leading zero omitted, Abs format (unit mm)*
G04 Created by KiCad (PCBNEW 9.0.0) date 2025-07-02 21:05:00*
%MOMM*%
%LPD*%
G01*
G04 APERTURE LIST*
G04 Aperture macros list*
%AMRoundRect*
0 Rectangle with rounded corners*
0 $1 Rounding radius*
0 $2 $3 $4 $5 $6 $7 $8 $9 X,Y pos of 4 corners*
0 Add a 4 corners polygon primitive as box body*
4,1,4,$2,$3,$4,$5,$6,$7,$8,$9,$2,$3,0*
0 Add four circle primitives for the rounded corners*
1,1,$1+$1,$2,$3*
1,1,$1+$1,$4,$5*
1,1,$1+$1,$6,$7*
1,1,$1+$1,$8,$9*
0 Add four rect primitives between the rounded corners*
20,1,$1+$1,$2,$3,$4,$5,0*
20,1,$1+$1,$4,$5,$6,$7,0*
20,1,$1+$1,$6,$7,$8,$9,0*
20,1,$1+$1,$8,$9,$2,$3,0*%
G04 Aperture macros list end*
%TA.AperFunction,SMDPad,CuDef*%
%ADD10RoundRect,0.250000X0.250000X2.500000X-0.250000X2.500000X-0.250000X-2.500000X0.250000X-2.500000X0*%
%TD*%
%TA.AperFunction,SMDPad,CuDef*%
%ADD11RoundRect,0.250000X0.550000X1.250000X-0.550000X1.250000X-0.550000X-1.250000X0.550000X-1.250000X0*%
%TD*%
%TA.AperFunction,SMDPad,CuDef*%
%ADD12RoundRect,0.140000X-0.140000X-0.170000X0.140000X-0.170000X0.140000X0.170000X-0.140000X0.170000X0*%
%TD*%
%TA.AperFunction,SMDPad,CuDef*%
%ADD13RoundRect,0.135000X0.135000X0.185000X-0.135000X0.185000X-0.135000X-0.185000X0.135000X-0.185000X0*%
%TD*%
%TA.AperFunction,ViaPad*%
%ADD14C,0.600000*%
%TD*%
%TA.AperFunction,Conductor*%
%ADD15C,0.350000*%
%TD*%
G04 APERTURE END LIST*
D10*
%TO.P,J1,1,Pin_1*%
%TO.N,+3V3*%
X102000000Y-102092000D03*
%TO.P,J1,2,Pin_2*%
%TO.N,Net-(IC1-OUT)*%
X100000000Y-102092000D03*
%TO.P,J1,3,Pin_3*%
%TO.N,GND*%
X98000000Y-102092000D03*
D11*
%TO.P,J1,MP*%
%TO.N,N/C*%
X104400000Y-99842000D03*
X95600000Y-99842000D03*
%TD*%
D12*
%TO.P,C1,1*%
%TO.N,+3V3*%
X103558400Y-103124000D03*
%TO.P,C1,2*%
%TO.N,GND*%
X104518400Y-103124000D03*
%TD*%
D13*
%TO.P,R1,1*%
%TO.N,Net-(IC1-ADJ)*%
X96369600Y-103276400D03*
%TO.P,R1,2*%
%TO.N,GND*%
X95349600Y-103276400D03*
%TD*%
D12*
%TO.P,C2,1*%
%TO.N,+3V3*%
X103558400Y-104114600D03*
%TO.P,C2,2*%
%TO.N,GND*%
X104518400Y-104114600D03*
%TD*%
D14*
%TO.N,GND*%
X95351600Y-104216200D03*
X106553000Y-103606600D03*
X98000000Y-102092000D03*
%TO.N,Net-(IC1-OUT)*%
X100000000Y-98425000D03*
%TO.N,Net-(IC1-ADJ)*%
X96367600Y-102235000D03*
%TO.N,+3V3*%
X103558400Y-102186800D03*
%TD*%
D15*
%TO.N,Net-(IC1-OUT)*%
X100000000Y-98425000D02*
X100000000Y-102092000D01*
%TO.N,Net-(IC1-ADJ)*%
X96369600Y-102309200D02*
X96369600Y-103276400D01*
X96367600Y-102235000D02*
X96367600Y-102307200D01*
X96367600Y-102307200D02*
X96369600Y-102309200D01*
%TO.N,+3V3*%
X103558400Y-104114600D02*
X103558400Y-103124000D01*
X102000000Y-102092000D02*
X102000000Y-103955800D01*
X102158800Y-104114600D02*
X103558400Y-104114600D01*
X103558400Y-102186800D02*
X103558400Y-103124000D01*
X102000000Y-103955800D02*
X102158800Y-104114600D01*
%TD*%
%TA.AperFunction,Conductor*%
%TO.N,GND*%
G36*
X120572772Y-94394407D02*
G01*
X120581944Y-94401952D01*
X121967865Y-95688877D01*
X121997641Y-95742327D01*
X121999500Y-95761423D01*
X121999500Y-104238575D01*
X121980593Y-104296766D01*
X121967865Y-104311122D01*
X120581946Y-105598047D01*
X120526438Y-105623787D01*
X120514581Y-105624500D01*
X79485419Y-105624500D01*
X79427228Y-105605593D01*
X79418054Y-105598047D01*
X78386122Y-104639824D01*
X97249999Y-104639824D01*
X97256401Y-104699370D01*
X97256403Y-104699381D01*
X97306646Y-104834088D01*
X97306647Y-104834090D01*
X97392807Y-104949184D01*
X97392815Y-104949192D01*
X97507909Y-105035352D01*
X97507911Y-105035353D01*
X97642618Y-105085596D01*
X97642629Y-105085598D01*
X97702176Y-105092000D01*
X97749999Y-105092000D01*
X97750000Y-105091999D01*
X97750000Y-102342001D01*
X98250000Y-102342001D01*
X98250000Y-105091999D01*
X98250001Y-105092000D01*
X98297824Y-105092000D01*
X98357370Y-105085598D01*
X98357381Y-105085596D01*
X98492088Y-105035353D01*
X98492090Y-105035352D01*
X98607184Y-104949192D01*
X98607192Y-104949184D01*
X98693352Y-104834090D01*
X98693353Y-104834088D01*
X98743596Y-104699381D01*
X98743598Y-104699370D01*
X98750000Y-104639824D01*
X98750000Y-102342001D01*
X98749999Y-102342000D01*
X98250001Y-102342000D01*
X98250000Y-102342001D01*
X97750000Y-102342001D01*
X97749999Y-102342000D01*
X97250001Y-102342000D01*
X97250000Y-102342001D01*
X97250000Y-104639824D01*
X97249999Y-104639824D01*
X78386122Y-104639824D01*
X78032135Y-104311122D01*
X78002359Y-104257670D01*
X78000500Y-104238575D01*
X78000500Y-103526400D01*
X94833747Y-103526400D01*
X94840503Y-103572775D01*
X94896935Y-103688207D01*
X94987793Y-103779065D01*
X95099599Y-103833723D01*
X95099600Y-103833723D01*
X95099600Y-103526401D01*
X95099599Y-103526400D01*
X94833747Y-103526400D01*
X78000500Y-103526400D01*
X78000500Y-103026399D01*
X94833745Y-103026399D01*
X94833746Y-103026400D01*
X95099599Y-103026400D01*
X95099600Y-103026399D01*
X95099600Y-102719075D01*
X95599600Y-102719075D01*
X95599600Y-103833723D01*
X95711406Y-103779065D01*
X95802266Y-103688205D01*
X95807032Y-103681531D01*
X95808184Y-103682353D01*
X95844543Y-103644769D01*
X95904808Y-103634196D01*
X95959778Y-103661066D01*
X95960890Y-103662159D01*
X96039196Y-103740465D01*
X96039197Y-103740465D01*
X96039198Y-103740466D01*
X96146424Y-103790467D01*
X96146425Y-103790467D01*
X96146427Y-103790468D01*
X96195284Y-103796900D01*
X96195285Y-103796900D01*
X96543914Y-103796900D01*
X96543916Y-103796900D01*
X96592773Y-103790468D01*
X96700004Y-103740465D01*
X96783665Y-103656804D01*
X96833668Y-103549573D01*
X96840100Y-103500716D01*
X96840100Y-103052084D01*
X96833668Y-103003227D01*
X96783665Y-102895996D01*
X96783664Y-102895994D01*
X96774094Y-102886424D01*
X96746318Y-102831907D01*
X96745100Y-102816423D01*
X96745100Y-102605894D01*
X96764007Y-102547703D01*
X96765560Y-102545624D01*
X96768095Y-102542318D01*
X96768100Y-102542314D01*
X96833992Y-102428186D01*
X96868100Y-102300892D01*
X96868100Y-102169108D01*
X96833992Y-102041814D01*
X96833990Y-102041811D01*
X96833990Y-102041809D01*
X96768103Y-101927690D01*
X96768101Y-101927688D01*
X96768100Y-101927686D01*
X96674914Y-101834500D01*
X96674911Y-101834498D01*
X96674909Y-101834496D01*
X96560789Y-101768609D01*
X96560791Y-101768609D01*
X96511399Y-101755375D01*
X96433492Y-101734500D01*
X96301708Y-101734500D01*
X96223800Y-101755375D01*
X96174409Y-101768609D01*
X96060290Y-101834496D01*
X95967096Y-101927690D01*
X95901209Y-102041809D01*
X95882139Y-102112978D01*
X95867100Y-102169108D01*
X95867100Y-102300892D01*
X95878115Y-102342000D01*
X95901209Y-102428190D01*
X95967096Y-102542309D01*
X95971049Y-102547460D01*
X95969391Y-102548731D01*
X95992881Y-102594834D01*
X95994100Y-102610321D01*
X95994100Y-102816423D01*
X95991631Y-102824020D01*
X95992881Y-102831910D01*
X95982356Y-102852565D01*
X95975193Y-102874614D01*
X95965104Y-102886427D01*
X95960949Y-102890582D01*
X95906432Y-102918359D01*
X95846000Y-102908788D01*
X95807877Y-102870665D01*
X95807032Y-102871269D01*
X95803414Y-102866202D01*
X95802735Y-102865523D01*
X95802284Y-102864620D01*
X95802266Y-102864594D01*
X95711406Y-102773734D01*
X95599600Y-102719075D01*
X95099600Y-102719075D01*
X94987793Y-102773734D01*
X94896934Y-102864593D01*
X94840502Y-102980028D01*
X94833745Y-103026399D01*
X78000500Y-103026399D01*
X78000500Y-99863978D01*
X79124700Y-99863978D01*
X79124700Y-99915711D01*
X79124700Y-100136022D01*
X79160209Y-100405740D01*
X79215897Y-100613572D01*
X79230617Y-100668508D01*
X79230619Y-100668515D01*
X79334726Y-100919852D01*
X79470747Y-101155446D01*
X79636353Y-101371269D01*
X79636355Y-101371271D01*
X79636359Y-101371276D01*
X79828724Y-101563641D01*
X79828728Y-101563644D01*
X79828730Y-101563646D01*
X79862451Y-101589521D01*
X80044551Y-101729251D01*
X80044553Y-101729252D01*
X80239835Y-101841999D01*
X80280149Y-101865274D01*
X80531485Y-101969381D01*
X80794260Y-102039791D01*
X81063978Y-102075300D01*
X81063979Y-102075300D01*
X81336021Y-102075300D01*
X81336022Y-102075300D01*
X81605740Y-102039791D01*
X81868515Y-101969381D01*
X82119851Y-101865274D01*
X82355449Y-101729251D01*
X82571276Y-101563641D01*
X82763641Y-101371276D01*
X82929251Y-101155449D01*
X83065274Y-100919851D01*
X83169381Y-100668515D01*
X83239791Y-100405740D01*
X83275300Y-100136022D01*
X83275300Y-99863978D01*
X83239791Y-99594260D01*
X83169381Y-99331485D01*
X83065274Y-99080149D01*
X83061993Y-99074467D01*
X82929252Y-98844553D01*
X82929251Y-98844551D01*
X82763641Y-98628724D01*
X82672642Y-98537725D01*
X94599500Y-98537725D01*
X94599500Y-101146274D01*
X94602353Y-101176694D01*
X94602355Y-101176703D01*
X94647207Y-101304883D01*
X94727845Y-101414144D01*
X94727847Y-101414146D01*
X94727850Y-101414150D01*
X94727853Y-101414152D01*
X94727855Y-101414154D01*
X94837116Y-101494792D01*
X94837117Y-101494792D01*
X94837118Y-101494793D01*
X94965301Y-101539646D01*
X94995725Y-101542499D01*
X94995727Y-101542500D01*
X94995734Y-101542500D01*
X96204273Y-101542500D01*
X96204273Y-101542499D01*
X96234699Y-101539646D01*
X96362882Y-101494793D01*
X96472150Y-101414150D01*
X96552793Y-101304882D01*
X96597646Y-101176699D01*
X96600499Y-101146273D01*
X96600500Y-101146273D01*
X96600500Y-99544175D01*
X97250000Y-99544175D01*
X97250000Y-101841999D01*
X97250001Y-101842000D01*
X97749999Y-101842000D01*
X97750000Y-101841999D01*
X97750000Y-99092001D01*
X98250000Y-99092001D01*
X98250000Y-101841999D01*
X98250001Y-101842000D01*
X98749999Y-101842000D01*
X98750000Y-101841999D01*
X98750000Y-99544177D01*
X98749306Y-99537725D01*
X99299500Y-99537725D01*
X99299500Y-104646274D01*
X99302353Y-104676694D01*
X99302355Y-104676703D01*
X99347207Y-104804883D01*
X99427845Y-104914144D01*
X99427847Y-104914146D01*
X99427850Y-104914150D01*
X99427853Y-104914152D01*
X99427855Y-104914154D01*
X99537116Y-104994792D01*
X99537117Y-104994792D01*
X99537118Y-104994793D01*
X99665301Y-105039646D01*
X99695725Y-105042499D01*
X99695727Y-105042500D01*
X99695734Y-105042500D01*
X100304273Y-105042500D01*
X100304273Y-105042499D01*
X100334699Y-105039646D01*
X100462882Y-104994793D01*
X100572150Y-104914150D01*
X100652793Y-104804882D01*
X100697646Y-104676699D01*
X100700499Y-104646273D01*
X100700500Y-104646273D01*
X100700500Y-99537727D01*
X100700499Y-99537725D01*
X101299500Y-99537725D01*
X101299500Y-104646274D01*
X101302353Y-104676694D01*
X101302355Y-104676703D01*
X101347207Y-104804883D01*
X101427845Y-104914144D01*
X101427847Y-104914146D01*
X101427850Y-104914150D01*
X101427853Y-104914152D01*
X101427855Y-104914154D01*
X101537116Y-104994792D01*
X101537117Y-104994792D01*
X101537118Y-104994793D01*
X101665301Y-105039646D01*
X101695725Y-105042499D01*
X101695727Y-105042500D01*
X101695734Y-105042500D01*
X102304273Y-105042500D01*
X102304273Y-105042499D01*
X102334699Y-105039646D01*
X102462882Y-104994793D01*
X102572150Y-104914150D01*
X102652793Y-104804882D01*
X102697646Y-104676699D01*
X102700499Y-104646273D01*
X102700500Y-104646273D01*
X102700500Y-104589100D01*
X102719407Y-104530909D01*
X102768907Y-104494945D01*
X102799500Y-104490100D01*
X103101352Y-104490100D01*
X103159543Y-104509007D01*
X103171355Y-104519096D01*
X103218152Y-104565892D01*
X103220084Y-104567824D01*
X103328913Y-104618572D01*
X103378499Y-104625100D01*
X103738300Y-104625099D01*
X103787887Y-104618572D01*
X103787888Y-104618572D01*
X103861231Y-104584371D01*
X103896716Y-104567824D01*
X103933397Y-104531142D01*
X103987912Y-104503367D01*
X104048344Y-104512938D01*
X104073403Y-104531144D01*
X104146308Y-104604049D01*
X104256382Y-104660134D01*
X104268400Y-104662037D01*
X104268400Y-104364601D01*
X104768400Y-104364601D01*
X104768400Y-104662037D01*
X104780417Y-104660134D01*
X104890491Y-104604049D01*
X104977850Y-104516690D01*
X104977851Y-104516688D01*
X105033932Y-104406625D01*
X105033934Y-104406618D01*
X105040590Y-104364600D01*
X104768401Y-104364600D01*
X104768400Y-104364601D01*
X104268400Y-104364601D01*
X104268400Y-103374001D01*
X104768400Y-103374001D01*
X104768400Y-103864599D01*
X104768401Y-103864600D01*
X105040590Y-103864600D01*
X105033934Y-103822581D01*
X105033932Y-103822574D01*
X104977851Y-103712511D01*
X104977850Y-103712509D01*
X104954645Y-103689304D01*
X104926868Y-103634787D01*
X104936439Y-103574355D01*
X104954645Y-103549296D01*
X104977850Y-103526090D01*
X104977851Y-103526088D01*
X105033932Y-103416025D01*
X105033934Y-103416018D01*
X105040590Y-103374000D01*
X104768401Y-103374000D01*
X104768400Y-103374001D01*
X104268400Y-103374001D01*
X104268400Y-102873999D01*
X104768400Y-102873999D01*
X104768401Y-102874000D01*
X105040590Y-102874000D01*
X105033934Y-102831981D01*
X105033932Y-102831974D01*
X104977851Y-102721911D01*
X104977850Y-102721909D01*
X104890491Y-102634550D01*
X104780418Y-102578465D01*
X104780416Y-102578464D01*
X104768400Y-102576561D01*
X104768400Y-102873999D01*
X104268400Y-102873999D01*
X104268400Y-102576561D01*
X104268399Y-102576561D01*
X104256383Y-102578464D01*
X104256381Y-102578465D01*
X104146308Y-102634550D01*
X104102904Y-102677955D01*
X104082248Y-102688479D01*
X104063493Y-102702106D01*
X104055504Y-102702106D01*
X104048387Y-102705732D01*
X104025492Y-102702106D01*
X104002307Y-102702106D01*
X103995844Y-102697410D01*
X103987955Y-102696161D01*
X103971563Y-102679769D01*
X103952807Y-102666142D01*
X103950338Y-102658544D01*
X103944690Y-102652896D01*
X103933900Y-102607951D01*
X103933900Y-102560121D01*
X103952807Y-102501930D01*
X103955033Y-102499323D01*
X103954951Y-102499260D01*
X103958896Y-102494117D01*
X103958900Y-102494114D01*
X103958903Y-102494109D01*
X104024790Y-102379990D01*
X104024790Y-102379988D01*
X104024792Y-102379986D01*
X104058900Y-102252692D01*
X104058900Y-102120908D01*
X104024792Y-101993614D01*
X104024790Y-101993611D01*
X104024790Y-101993609D01*
X103958903Y-101879490D01*
X103958901Y-101879488D01*
X103958900Y-101879486D01*
X103865714Y-101786300D01*
X103865711Y-101786298D01*
X103865709Y-101786296D01*
X103763414Y-101727236D01*
X103722473Y-101681767D01*
X103716077Y-101620917D01*
X103746670Y-101567928D01*
X103802566Y-101543042D01*
X103812914Y-101542500D01*
X105004273Y-101542500D01*
X105004273Y-101542499D01*
X105034699Y-101539646D01*
X105162882Y-101494793D01*
X105272150Y-101414150D01*
X105352793Y-101304882D01*
X105397646Y-101176699D01*
X105400499Y-101146273D01*
X105400500Y-101146273D01*
X105400500Y-99870997D01*
X116831821Y-99870997D01*
X116831821Y-100129002D01*
X116865496Y-100384789D01*
X116865496Y-100384794D01*
X116932271Y-100634000D01*
X116932275Y-100634013D01*
X117031003Y-100872367D01*
X117031006Y-100872372D01*
X117160006Y-101095805D01*
X117317064Y-101300488D01*
X117317066Y-101300490D01*
X117317070Y-101300495D01*
X117499505Y-101482930D01*
X117499509Y-101482933D01*
X117499511Y-101482935D01*
X117521923Y-101500132D01*
X117704192Y-101639992D01*
X117815910Y-101704493D01*
X117927627Y-101768993D01*
X117927632Y-101768996D01*
X118069540Y-101827775D01*
X118165992Y-101867727D01*
X118415203Y-101934503D01*
X118670999Y-101968179D01*
X118671000Y-101968179D01*
X118929000Y-101968179D01*
X118929001Y-101968179D01*
X119184797Y-101934503D01*
X119434008Y-101867727D01*
X119630600Y-101786296D01*
X119672367Y-101768996D01*
X119672368Y-101768994D01*
X119672371Y-101768994D01*
X119895808Y-101639992D01*
X120100495Y-101482930D01*
X120282930Y-101300495D01*
X120439992Y-101095808D01*
X120568994Y-100872371D01*
X120667727Y-100634008D01*
X120734503Y-100384797D01*
X120768179Y-100129001D01*
X120768179Y-99870999D01*
X120734503Y-99615203D01*
X120667727Y-99365992D01*
X120613392Y-99234815D01*
X120568996Y-99127632D01*
X120568993Y-99127627D01*
X120439993Y-98904194D01*
X120439992Y-98904192D01*
X120346871Y-98782834D01*
X120282935Y-98699511D01*
X120282933Y-98699509D01*
X120282930Y-98699505D01*
X120100495Y-98517070D01*
X120100490Y-98517066D01*
X120100488Y-98517064D01*
X119962218Y-98410966D01*
X119895808Y-98360008D01*
X119894251Y-98359109D01*
X119672372Y-98231006D01*
X119672367Y-98231003D01*
X119434013Y-98132275D01*
X119434012Y-98132274D01*
X119434008Y-98132273D01*
X119184797Y-98065497D01*
X119184794Y-98065496D01*
X119184792Y-98065496D01*
X118929002Y-98031821D01*
X118929001Y-98031821D01*
X118670999Y-98031821D01*
X118670997Y-98031821D01*
X118415210Y-98065496D01*
X118415205Y-98065496D01*
X118165999Y-98132271D01*
X118165986Y-98132275D01*
X117927632Y-98231003D01*
X117927627Y-98231006D01*
X117704194Y-98360006D01*
X117499511Y-98517064D01*
X117317064Y-98699511D01*
X117160006Y-98904194D01*
X117031006Y-99127627D01*
X117031003Y-99127632D01*
X116932275Y-99365986D01*
X116932271Y-99365999D01*
X116865496Y-99615205D01*
X116865496Y-99615210D01*
X116831821Y-99870997D01*
X105400500Y-99870997D01*
X105400500Y-98537727D01*
X105400499Y-98537725D01*
X105398562Y-98517070D01*
X105397646Y-98507301D01*
X105352793Y-98379118D01*
X105338689Y-98360008D01*
X105272154Y-98269855D01*
X105272152Y-98269853D01*
X105272150Y-98269850D01*
X105272146Y-98269847D01*
X105272144Y-98269845D01*
X105162883Y-98189207D01*
X105034703Y-98144355D01*
X105034694Y-98144353D01*
X105004274Y-98141500D01*
X105004266Y-98141500D01*
X103795734Y-98141500D01*
X103795725Y-98141500D01*
X103765305Y-98144353D01*
X103765296Y-98144355D01*
X103637116Y-98189207D01*
X103527855Y-98269845D01*
X103527845Y-98269855D01*
X103447207Y-98379116D01*
X103402355Y-98507296D01*
X103402353Y-98507305D01*
X103399500Y-98537725D01*
X103399500Y-101146274D01*
X103402353Y-101176694D01*
X103402355Y-101176703D01*
X103447207Y-101304883D01*
X103527845Y-101414144D01*
X103527847Y-101414146D01*
X103527850Y-101414150D01*
X103527853Y-101414152D01*
X103527855Y-101414154D01*
X103637116Y-101494792D01*
X103643674Y-101498258D01*
X103642683Y-101500132D01*
X103683120Y-101530920D01*
X103700717Y-101589521D01*
X103680509Y-101647273D01*
X103630215Y-101682117D01*
X103601742Y-101686300D01*
X103492508Y-101686300D01*
X103414600Y-101707175D01*
X103365209Y-101720409D01*
X103251090Y-101786296D01*
X103157896Y-101879490D01*
X103092009Y-101993609D01*
X103092008Y-101993614D01*
X103057900Y-102120908D01*
X103057900Y-102252692D01*
X103070815Y-102300892D01*
X103092009Y-102379990D01*
X103157896Y-102494109D01*
X103161849Y-102499260D01*
X103161104Y-102499831D01*
X103163993Y-102501930D01*
X103171156Y-102523978D01*
X103181681Y-102544634D01*
X103182900Y-102560121D01*
X103182900Y-102666952D01*
X103163993Y-102725143D01*
X103153905Y-102736954D01*
X103135176Y-102755683D01*
X103135174Y-102755686D01*
X103084429Y-102864510D01*
X103084428Y-102864511D01*
X103077900Y-102914100D01*
X103077900Y-103333896D01*
X103077901Y-103333907D01*
X103084427Y-103383486D01*
X103084427Y-103383488D01*
X103135174Y-103492313D01*
X103135175Y-103492314D01*
X103135176Y-103492316D01*
X103153905Y-103511045D01*
X103157530Y-103518160D01*
X103163993Y-103522856D01*
X103171156Y-103544904D01*
X103181681Y-103565560D01*
X103182900Y-103581047D01*
X103182900Y-103640100D01*
X103163993Y-103698291D01*
X103114493Y-103734255D01*
X103083900Y-103739100D01*
X102799500Y-103739100D01*
X102741309Y-103720193D01*
X102705345Y-103670693D01*
X102700500Y-103640100D01*
X102700500Y-99537727D01*
X102700499Y-99537725D01*
X102697646Y-99507305D01*
X102697646Y-99507301D01*
X102652793Y-99379118D01*
X102643101Y-99365986D01*
X102572154Y-99269855D01*
X102572152Y-99269853D01*
X102572150Y-99269850D01*
X102572146Y-99269847D01*
X102572144Y-99269845D01*
X102462883Y-99189207D01*
X102334703Y-99144355D01*
X102334694Y-99144353D01*
X102304274Y-99141500D01*
X102304266Y-99141500D01*
X101695734Y-99141500D01*
X101695725Y-99141500D01*
X101665305Y-99144353D01*
X101665296Y-99144355D01*
X101537116Y-99189207D01*
X101427855Y-99269845D01*
X101427845Y-99269855D01*
X101347207Y-99379116D01*
X101302355Y-99507296D01*
X101302353Y-99507305D01*
X101299500Y-99537725D01*
X100700499Y-99537725D01*
X100697646Y-99507305D01*
X100697646Y-99507301D01*
X100652793Y-99379118D01*
X100643101Y-99365986D01*
X100572154Y-99269855D01*
X100572152Y-99269853D01*
X100572150Y-99269850D01*
X100572146Y-99269847D01*
X100572144Y-99269845D01*
X100462885Y-99189208D01*
X100462881Y-99189206D01*
X100441801Y-99181830D01*
X100393121Y-99144764D01*
X100375500Y-99088386D01*
X100375500Y-98798321D01*
X100394407Y-98740130D01*
X100396633Y-98737523D01*
X100396551Y-98737460D01*
X100400496Y-98732317D01*
X100400500Y-98732314D01*
X100419439Y-98699511D01*
X100466390Y-98618190D01*
X100466390Y-98618188D01*
X100466392Y-98618186D01*
X100500500Y-98490892D01*
X100500500Y-98359108D01*
X100466392Y-98231814D01*
X100466390Y-98231811D01*
X100466390Y-98231809D01*
X100400503Y-98117690D01*
X100400501Y-98117688D01*
X100400500Y-98117686D01*
X100307314Y-98024500D01*
X100307311Y-98024498D01*
X100307309Y-98024496D01*
X100193189Y-97958609D01*
X100193191Y-97958609D01*
X100143799Y-97945375D01*
X100065892Y-97924500D01*
X99934108Y-97924500D01*
X99856200Y-97945375D01*
X99806809Y-97958609D01*
X99692690Y-98024496D01*
X99599496Y-98117690D01*
X99533609Y-98231809D01*
X99533608Y-98231814D01*
X99499500Y-98359108D01*
X99499500Y-98490892D01*
X99512051Y-98537734D01*
X99533609Y-98618190D01*
X99599496Y-98732309D01*
X99603449Y-98737460D01*
X99601086Y-98739273D01*
X99623281Y-98782834D01*
X99624500Y-98798321D01*
X99624500Y-99088386D01*
X99605593Y-99146577D01*
X99558199Y-99181830D01*
X99537118Y-99189206D01*
X99537114Y-99189208D01*
X99427855Y-99269845D01*
X99427845Y-99269855D01*
X99347207Y-99379116D01*
X99302355Y-99507296D01*
X99302353Y-99507305D01*
X99299500Y-99537725D01*
X98749306Y-99537725D01*
X98743598Y-99484629D01*
X98743596Y-99484618D01*
X98693353Y-99349911D01*
X98693352Y-99349909D01*
X98607192Y-99234815D01*
X98607184Y-99234807D01*
X98492090Y-99148647D01*
X98492088Y-99148646D01*
X98357381Y-99098403D01*
X98357370Y-99098401D01*
X98297824Y-99092000D01*
X98250001Y-99092000D01*
X98250000Y-99092001D01*
X97750000Y-99092001D01*
X97749999Y-99092000D01*
X97702176Y-99092000D01*
X97642629Y-99098401D01*
X97642618Y-99098403D01*
X97507911Y-99148646D01*
X97507909Y-99148647D01*
X97392815Y-99234807D01*
X97392807Y-99234815D01*
X97306647Y-99349909D01*
X97306646Y-99349911D01*
X97256403Y-99484618D01*
X97256401Y-99484629D01*
X97250000Y-99544175D01*
X96600500Y-99544175D01*
X96600500Y-98537727D01*
X96600499Y-98537725D01*
X96598562Y-98517070D01*
X96597646Y-98507301D01*
X96552793Y-98379118D01*
X96538689Y-98360008D01*
X96472154Y-98269855D01*
X96472152Y-98269853D01*
X96472150Y-98269850D01*
X96472146Y-98269847D01*
X96472144Y-98269845D01*
X96362883Y-98189207D01*
X96234703Y-98144355D01*
X96234694Y-98144353D01*
X96204274Y-98141500D01*
X96204266Y-98141500D01*
X94995734Y-98141500D01*
X94995725Y-98141500D01*
X94965305Y-98144353D01*
X94965296Y-98144355D01*
X94837116Y-98189207D01*
X94727855Y-98269845D01*
X94727845Y-98269855D01*
X94647207Y-98379116D01*
X94602355Y-98507296D01*
X94602353Y-98507305D01*
X94599500Y-98537725D01*
X82672642Y-98537725D01*
X82571276Y-98436359D01*
X82571271Y-98436355D01*
X82571269Y-98436353D01*
X82355446Y-98270747D01*
X82119852Y-98134726D01*
X81868515Y-98030619D01*
X81868508Y-98030617D01*
X81835828Y-98021860D01*
X81605740Y-97960209D01*
X81605733Y-97960208D01*
X81336023Y-97924700D01*
X81336022Y-97924700D01*
X81063978Y-97924700D01*
X81063976Y-97924700D01*
X80794266Y-97960208D01*
X80794264Y-97960208D01*
X80794260Y-97960209D01*
X80634581Y-98002994D01*
X80531491Y-98030617D01*
X80531484Y-98030619D01*
X80280147Y-98134726D01*
X80044553Y-98270747D01*
X79828730Y-98436353D01*
X79636353Y-98628730D01*
X79470747Y-98844553D01*
X79334726Y-99080147D01*
X79230619Y-99331484D01*
X79230617Y-99331491D01*
X79221373Y-99365992D01*
X79160209Y-99594260D01*
X79160208Y-99594264D01*
X79160208Y-99594266D01*
X79143755Y-99719243D01*
X79124700Y-99863978D01*
X78000500Y-99863978D01*
X78000500Y-95761423D01*
X78019407Y-95703232D01*
X78032131Y-95688879D01*
X79418054Y-94401952D01*
X79473562Y-94376213D01*
X79485419Y-94375500D01*
X120514581Y-94375500D01*
X120572772Y-94394407D01*
G37*
%TD.AperFunction*%
%TD*%
M02*
