%TF.GenerationSoftware,KiCad,Pcbnew,9.0.0*%
%TF.CreationDate,2025-07-25T21:30:29+02:00*%
%TF.ProjectId,PCK_Flex,50434b5f-466c-4657-982e-6b696361645f,rev?*%
%TF.SameCoordinates,Original*%
%TF.FileFunction,Copper,L2,Bot*%
%TF.FilePolarity,Positive*%
%FSLAX46Y46*%
G04 Gerber Fmt 4.6, Leading zero omitted, Abs format (unit mm)*
G04 Created by KiCad (PCBNEW 9.0.0) date 2025-07-25 21:30:29*
%MOMM*%
%LPD*%
G01*
G04 APERTURE LIST*
%TA.AperFunction,ViaPad*%
%ADD10C,0.350000*%
%TD*%
G04 APERTURE END LIST*
D10*
%TO.N,GND*%
X157505400Y-116738400D03*
X146024600Y-116738400D03*
X149402800Y-58775600D03*
X149402800Y-61747400D03*
X149402800Y-60248800D03*
X149402800Y-57251600D03*
X149402800Y-55753000D03*
X149402800Y-54250000D03*
X155016200Y-116738400D03*
X152019000Y-116738400D03*
X149021800Y-116738400D03*
%TD*%
%TA.AperFunction,Conductor*%
%TO.N,GND*%
G36*
X152458691Y-54019407D02*
G01*
X152494655Y-54068907D01*
X152499500Y-54099500D01*
X152499500Y-64900500D01*
X152480593Y-64958691D01*
X152431093Y-64994655D01*
X152400500Y-64999500D01*
X149176081Y-64999500D01*
X149031085Y-65028342D01*
X148894504Y-65084915D01*
X148890216Y-65087208D01*
X148889373Y-65085632D01*
X148837505Y-65100256D01*
X148780104Y-65079074D01*
X148746115Y-65028198D01*
X148742400Y-65001333D01*
X148742400Y-54099500D01*
X148761307Y-54041309D01*
X148810807Y-54005345D01*
X148841400Y-54000500D01*
X149200172Y-54000500D01*
X152400500Y-54000500D01*
X152458691Y-54019407D01*
G37*
%TD.AperFunction*%
%TD*%
%TA.AperFunction,Conductor*%
%TO.N,GND*%
G36*
X160708691Y-116249307D02*
G01*
X160744655Y-116298807D01*
X160749500Y-116329400D01*
X160749500Y-120900500D01*
X160730593Y-120958691D01*
X160681093Y-120994655D01*
X160650500Y-120999500D01*
X145349500Y-120999500D01*
X145291309Y-120980593D01*
X145255345Y-120931093D01*
X145250500Y-120900500D01*
X145250500Y-116329400D01*
X145269407Y-116271209D01*
X145318907Y-116235245D01*
X145349500Y-116230400D01*
X160650500Y-116230400D01*
X160708691Y-116249307D01*
G37*
%TD.AperFunction*%
%TD*%
M02*
