%TF.GenerationSoftware,KiCad,Pcbnew,9.0.0*%
%TF.CreationDate,2025-07-25T21:30:29+02:00*%
%TF.ProjectId,PCK_Flex,50434b5f-466c-4657-982e-6b696361645f,rev?*%
%TF.SameCoordinates,Original*%
%TF.FileFunction,Legend,Bot*%
%TF.FilePolarity,Positive*%
%FSLAX46Y46*%
G04 Gerber Fmt 4.6, Leading zero omitted, Abs format (unit mm)*
G04 Created by KiCad (PCBNEW 9.0.0) date 2025-07-25 21:30:29*
%MOMM*%
%LPD*%
G01*
G04 APERTURE LIST*
%ADD10C,0.100000*%
G04 APERTURE END LIST*
D10*
X153342933Y-116475219D02*
X153342933Y-117189504D01*
X153342933Y-117189504D02*
X153390552Y-117332361D01*
X153390552Y-117332361D02*
X153485790Y-117427600D01*
X153485790Y-117427600D02*
X153628647Y-117475219D01*
X153628647Y-117475219D02*
X153723885Y-117475219D01*
X152914361Y-116570457D02*
X152866742Y-116522838D01*
X152866742Y-116522838D02*
X152771504Y-116475219D01*
X152771504Y-116475219D02*
X152533409Y-116475219D01*
X152533409Y-116475219D02*
X152438171Y-116522838D01*
X152438171Y-116522838D02*
X152390552Y-116570457D01*
X152390552Y-116570457D02*
X152342933Y-116665695D01*
X152342933Y-116665695D02*
X152342933Y-116760933D01*
X152342933Y-116760933D02*
X152390552Y-116903790D01*
X152390552Y-116903790D02*
X152961980Y-117475219D01*
X152961980Y-117475219D02*
X152342933Y-117475219D01*
X149361180Y-59845533D02*
X148646895Y-59845533D01*
X148646895Y-59845533D02*
X148504038Y-59893152D01*
X148504038Y-59893152D02*
X148408800Y-59988390D01*
X148408800Y-59988390D02*
X148361180Y-60131247D01*
X148361180Y-60131247D02*
X148361180Y-60226485D01*
X148361180Y-58845533D02*
X148361180Y-59416961D01*
X148361180Y-59131247D02*
X149361180Y-59131247D01*
X149361180Y-59131247D02*
X149218323Y-59226485D01*
X149218323Y-59226485D02*
X149123085Y-59321723D01*
X149123085Y-59321723D02*
X149075466Y-59416961D01*
M02*
