%TF.GenerationSoftware,KiCad,Pcbnew,9.0.0*%
%TF.CreationDate,2025-07-27T15:36:47+02:00*%
%TF.ProjectId,PCK-ST1,50434b2d-5354-4312-9e6b-696361645f70,rev?*%
%TF.SameCoordinates,Original*%
%TF.FileFunction,Soldermask,Bot*%
%TF.FilePolarity,Negative*%
%FSLAX46Y46*%
G04 Gerber Fmt 4.6, Leading zero omitted, Abs format (unit mm)*
G04 Created by KiCad (PCBNEW 9.0.0) date 2025-07-27 15:36:47*
%MOMM*%
%LPD*%
G01*
G04 APERTURE LIST*
G04 Aperture macros list*
%AMRoundRect*
0 Rectangle with rounded corners*
0 $1 Rounding radius*
0 $2 $3 $4 $5 $6 $7 $8 $9 X,Y pos of 4 corners*
0 Add a 4 corners polygon primitive as box body*
4,1,4,$2,$3,$4,$5,$6,$7,$8,$9,$2,$3,0*
0 Add four circle primitives for the rounded corners*
1,1,$1+$1,$2,$3*
1,1,$1+$1,$4,$5*
1,1,$1+$1,$6,$7*
1,1,$1+$1,$8,$9*
0 Add four rect primitives between the rounded corners*
20,1,$1+$1,$2,$3,$4,$5,0*
20,1,$1+$1,$4,$5,$6,$7,0*
20,1,$1+$1,$6,$7,$8,$9,0*
20,1,$1+$1,$8,$9,$2,$3,0*%
%AMHorizOval*
0 Thick line with rounded ends*
0 $1 width*
0 $2 $3 position (X,Y) of the first rounded end (center of the circle)*
0 $4 $5 position (X,Y) of the second rounded end (center of the circle)*
0 Add line between two ends*
20,1,$1,$2,$3,$4,$5,0*
0 Add two circle primitives to create the rounded ends*
1,1,$1,$2,$3*
1,1,$1,$4,$5*%
%AMRotRect*
0 Rectangle, with rotation*
0 The origin of the aperture is its center*
0 $1 length*
0 $2 width*
0 $3 Rotation angle, in degrees counterclockwise*
0 Add horizontal line*
21,1,$1,$2,0,0,$3*%
G04 Aperture macros list end*
%ADD10C,2.475000*%
%ADD11C,1.462000*%
%ADD12R,1.462000X1.462000*%
%ADD13C,3.300000*%
%ADD14HorizOval,1.000000X-0.259808X0.150000X0.259808X-0.150000X0*%
%ADD15HorizOval,1.000000X-0.476314X0.275000X0.476314X-0.275000X0*%
%ADD16C,0.650000*%
%ADD17RoundRect,0.250000X0.625000X-0.350000X0.625000X0.350000X-0.625000X0.350000X-0.625000X-0.350000X0*%
%ADD18O,1.750000X1.200000*%
%ADD19C,4.700000*%
%ADD20RoundRect,0.250000X0.350000X0.625000X-0.350000X0.625000X-0.350000X-0.625000X0.350000X-0.625000X0*%
%ADD21O,1.200000X1.750000*%
%ADD22RotRect,4.600000X2.000000X240.000000*%
%ADD23HorizOval,2.000000X-0.550000X-0.952628X0.550000X0.952628X0*%
%ADD24HorizOval,2.000000X-0.952628X0.550000X0.952628X-0.550000X0*%
%ADD25R,1.700000X1.700000*%
%ADD26O,1.700000X1.700000*%
%ADD27RoundRect,0.135000X-0.135000X-0.185000X0.135000X-0.185000X0.135000X0.185000X-0.135000X0.185000X0*%
%ADD28C,1.500000*%
%ADD29RotRect,1.000000X1.900000X240.000000*%
%ADD30RotRect,1.300000X1.500000X150.000000*%
%ADD31RoundRect,0.218750X-0.218750X-0.256250X0.218750X-0.256250X0.218750X0.256250X-0.218750X0.256250X0*%
%ADD32RoundRect,0.218750X0.112544X-0.317568X0.331294X0.061318X-0.112544X0.317568X-0.331294X-0.061318X0*%
G04 APERTURE END LIST*
D10*
%TO.C,J2*%
X120140000Y-106805000D03*
X120140000Y-93235000D03*
D11*
X129460000Y-103200000D03*
X132000000Y-101930000D03*
X129460000Y-100660000D03*
X132000000Y-99390000D03*
X129460000Y-98120000D03*
D12*
X132000000Y-96850000D03*
D13*
X123110000Y-105100000D03*
X123110000Y-94940000D03*
%TD*%
D14*
%TO.C,J7*%
X128659023Y-73203730D03*
D15*
X132279009Y-75293730D03*
D14*
X132979023Y-65721270D03*
D15*
X136599009Y-67811270D03*
D16*
X132560996Y-73805313D03*
X135450996Y-68799687D03*
%TD*%
D17*
%TO.C,J14*%
X182750000Y-106900000D03*
D18*
X182750000Y-104900000D03*
X182750000Y-102900000D03*
%TD*%
D19*
%TO.C,H5*%
X169000000Y-62900000D03*
%TD*%
%TO.C,H4*%
X121000000Y-111500000D03*
%TD*%
D20*
%TO.C,J11*%
X178098200Y-77250000D03*
D21*
X176098200Y-77250000D03*
X174098200Y-77250000D03*
%TD*%
D17*
%TO.C,J6*%
X163000000Y-68000000D03*
D18*
X163000000Y-66000000D03*
X163000000Y-64000000D03*
X163000000Y-62000000D03*
%TD*%
D20*
%TO.C,J10*%
X178098200Y-70750000D03*
D21*
X176098200Y-70750000D03*
X174098200Y-70750000D03*
%TD*%
D22*
%TO.C,J8*%
X132000000Y-85500000D03*
D23*
X126544040Y-82350000D03*
D24*
X127088526Y-88206922D03*
%TD*%
D17*
%TO.C,J4*%
X149000000Y-68000000D03*
D18*
X149000000Y-66000000D03*
X149000000Y-64000000D03*
X149000000Y-62000000D03*
%TD*%
D19*
%TO.C,H2*%
X179000000Y-88500000D03*
%TD*%
D17*
%TO.C,J5*%
X156000000Y-68000000D03*
D18*
X156000000Y-66000000D03*
X156000000Y-64000000D03*
X156000000Y-62000000D03*
%TD*%
D17*
%TO.C,J15*%
X182750000Y-97100000D03*
D18*
X182750000Y-95100000D03*
X182750000Y-93100000D03*
%TD*%
D25*
%TO.C,J16*%
X175717200Y-94914800D03*
D26*
X175717200Y-97454800D03*
%TD*%
D17*
%TO.C,J17*%
X182753000Y-67360800D03*
D18*
X182753000Y-65360800D03*
%TD*%
D20*
%TO.C,J12*%
X178072800Y-83750000D03*
D21*
X176072800Y-83750000D03*
X174072800Y-83750000D03*
%TD*%
D17*
%TO.C,J3*%
X142000000Y-68000000D03*
D18*
X142000000Y-66000000D03*
X142000000Y-64000000D03*
X142000000Y-62000000D03*
%TD*%
D19*
%TO.C,H3*%
X179000000Y-111500000D03*
%TD*%
D20*
%TO.C,J9*%
X178079400Y-64250000D03*
D21*
X176079400Y-64250000D03*
X174079400Y-64250000D03*
%TD*%
D19*
%TO.C,H6*%
X136000000Y-62900000D03*
%TD*%
D25*
%TO.C,J1*%
X125850000Y-110250000D03*
D26*
X125850000Y-112790000D03*
X128390000Y-110250000D03*
X128390000Y-112790000D03*
X130930000Y-110250000D03*
X130930000Y-112790000D03*
X133470000Y-110250000D03*
X133470000Y-112790000D03*
X136010000Y-110250000D03*
X136010000Y-112790000D03*
X138550000Y-110250000D03*
X138550000Y-112790000D03*
X141090000Y-110250000D03*
X141090000Y-112790000D03*
X143630000Y-110250000D03*
X143630000Y-112790000D03*
X146170000Y-110250000D03*
X146170000Y-112790000D03*
X148710000Y-110250000D03*
X148710000Y-112790000D03*
X151250000Y-110250000D03*
X151250000Y-112790000D03*
X153790000Y-110250000D03*
X153790000Y-112790000D03*
X156330000Y-110250000D03*
X156330000Y-112790000D03*
X158870000Y-110250000D03*
X158870000Y-112790000D03*
X161410000Y-110250000D03*
X161410000Y-112790000D03*
X163950000Y-110250000D03*
X163950000Y-112790000D03*
X166490000Y-110250000D03*
X166490000Y-112790000D03*
X169030000Y-110250000D03*
X169030000Y-112790000D03*
X171570000Y-110250000D03*
X171570000Y-112790000D03*
X174110000Y-110250000D03*
X174110000Y-112790000D03*
%TD*%
D19*
%TO.C,H7*%
X121000000Y-88500000D03*
%TD*%
D17*
%TO.C,J13*%
X182750000Y-83500000D03*
D18*
X182750000Y-81500000D03*
X182750000Y-79500000D03*
X182750000Y-77500000D03*
X182750000Y-75500000D03*
X182750000Y-73500000D03*
%TD*%
D27*
%TO.C,R56*%
X123035600Y-100990400D03*
X124055600Y-100990400D03*
%TD*%
D28*
%TO.C,TP3*%
X164896800Y-99695000D03*
%TD*%
D27*
%TO.C,R58*%
X123010200Y-98856800D03*
X124030200Y-98856800D03*
%TD*%
%TO.C,R55*%
X123059000Y-102057200D03*
X124079000Y-102057200D03*
%TD*%
D29*
%TO.C,S2*%
X139820590Y-77281957D03*
X142070590Y-73384843D03*
D30*
X136847033Y-77932309D03*
X140830750Y-80232309D03*
X145130750Y-72784491D03*
X141147033Y-70484491D03*
%TD*%
D28*
%TO.C,TP8*%
X152958800Y-78359000D03*
%TD*%
D27*
%TO.C,R57*%
X123010200Y-99923600D03*
X124030200Y-99923600D03*
%TD*%
D31*
%TO.C,D6*%
X118962500Y-103750000D03*
X120537500Y-103750000D03*
%TD*%
D28*
%TO.C,TP9*%
X161315400Y-77876400D03*
%TD*%
%TO.C,TP5*%
X140182600Y-97028000D03*
%TD*%
%TO.C,TP6*%
X132638800Y-89484200D03*
%TD*%
D31*
%TO.C,D8*%
X118962500Y-98750000D03*
X120537500Y-98750000D03*
%TD*%
D28*
%TO.C,TP4*%
X125831600Y-107010200D03*
%TD*%
D32*
%TO.C,D4*%
X129400250Y-69541395D03*
X130187750Y-68177405D03*
%TD*%
D28*
%TO.C,TP2*%
X158191200Y-101523800D03*
%TD*%
%TO.C,TP10*%
X159258000Y-87731600D03*
%TD*%
D31*
%TO.C,D7*%
X118962500Y-101250000D03*
X120537500Y-101250000D03*
%TD*%
%TO.C,D9*%
X118962500Y-96250000D03*
X120537500Y-96250000D03*
%TD*%
D32*
%TO.C,D5*%
X122694650Y-80996795D03*
X123482150Y-79632805D03*
%TD*%
D28*
%TO.C,TP1*%
X143281400Y-105460800D03*
%TD*%
%TO.C,TP7*%
X154127200Y-91008200D03*
%TD*%
M02*
