M48
; DRILL file {KiCad 9.0.0} date 2025-07-27T15:36:44+0200
; FORMAT={-:-/ absolute / metric / decimal}
; #@! TF.CreationDate,2025-07-27T15:36:44+02:00
; #@! TF.GenerationSoftware,Kicad,Pcbnew,9.0.0
; #@! TF.FileFunction,Plated,1,4,PTH
FMAT,2
METRIC
; #@! TA.AperFunction,Plated,PTH,ViaDrill
T1C0.300
; #@! TA.AperFunction,Plated,PTH,ComponentDrill
T2C0.600
; #@! TA.AperFunction,Plated,PTH,ComponentDrill
T3C0.750
; #@! TA.AperFunction,Plated,PTH,ComponentDrill
T4C0.940
; #@! TA.AperFunction,Plated,PTH,ComponentDrill
T5C1.000
; #@! TA.AperFunction,Plated,PTH,ComponentDrill
T6C1.650
; #@! TA.AperFunction,Plated,PTH,ComponentDrill
T7C2.700
%
G90
G05
T1
X118.897Y-100.021
X118.923Y-97.507
X118.923Y-102.51
X123.482Y-79.633
X130.188Y-68.177
X130.251Y-77.394
X130.658Y-76.708
X132.639Y-89.484
X134.264Y-100.609
X134.264Y-101.194
X134.595Y-75.057
X134.595Y-75.565
X135.001Y-78.511
X135.001Y-79.959
X135.052Y-73.939
X135.077Y-84.76
X135.103Y-75.057
X135.103Y-75.565
X135.636Y-104.292
X135.636Y-104.877
X135.661Y-84.76
X136.398Y-86.97
X136.904Y-91.159
X136.906Y-70.536
X136.982Y-72.746
X137.008Y-103.556
X137.135Y-70.079
X137.152Y-73.939
X137.185Y-76.708
X137.185Y-86.792
X137.389Y-70.815
X137.439Y-93.489
X137.49Y-91.694
X137.516Y-103.556
X137.617Y-70.358
X137.617Y-96.723
X137.919Y-86.792
X137.922Y-77.089
X138.201Y-84.379
X138.278Y-80.112
X138.455Y-89.459
X138.455Y-89.967
X138.481Y-76.606
X138.633Y-90.627
X138.786Y-72.288
X138.811Y-104.419
X138.811Y-104.978
X138.989Y-89.459
X138.989Y-89.967
X139.04Y-75.311
X139.116Y-85.293
X139.217Y-90.627
X139.522Y-79.553
X139.652Y-74.016
X139.652Y-74.498
X139.929Y-101.041
X139.979Y-99.39
X140.183Y-103.784
X140.183Y-104.343
X140.183Y-104.902
X140.233Y-93.675
X140.26Y-74.269
X140.564Y-83.464
X140.564Y-85.192
X140.564Y-85.75
X140.665Y-89.586
X140.665Y-90.449
X140.665Y-91.313
X140.767Y-103.784
X140.767Y-104.343
X140.767Y-104.902
X140.818Y-74.27
X140.868Y-98.501
X141.173Y-83.464
X141.173Y-85.192
X141.199Y-85.75
X141.224Y-89.586
X141.224Y-90.475
X141.224Y-91.313
X141.351Y-103.784
X141.351Y-104.343
X141.351Y-104.902
X141.529Y-79.197
X141.63Y-81.077
X141.63Y-97.485
X141.63Y-98.069
X141.935Y-103.784
X141.935Y-104.343
X141.935Y-104.902
X141.961Y-89.586
X141.961Y-90.449
X141.961Y-91.313
X142.011Y-85.369
X142.035Y-75.64
X142.035Y-76.14
X142.035Y-76.64
X142.035Y-77.14
X142.316Y-96.495
X142.316Y-97.053
X142.519Y-89.586
X142.519Y-90.475
X142.519Y-91.313
X142.524Y-79.121
X142.535Y-75.64
X142.535Y-76.14
X142.535Y-76.64
X142.535Y-77.14
X142.596Y-85.369
X143.035Y-75.64
X143.035Y-76.14
X143.035Y-76.64
X143.035Y-77.14
X143.053Y-96.495
X143.053Y-97.079
X143.104Y-62.992
X143.129Y-98.527
X143.18Y-103.327
X143.18Y-103.886
X143.231Y-81.102
X143.281Y-79.781
X143.358Y-83.515
X143.358Y-84.125
X143.358Y-84.734
X143.535Y-75.64
X143.535Y-76.14
X143.535Y-76.64
X143.535Y-77.14
X143.764Y-70.028
X143.764Y-70.561
X143.764Y-103.327
X143.764Y-103.886
X144.196Y-100.99
X144.348Y-70.028
X144.348Y-70.561
X144.45Y-88.087
X144.475Y-91.288
X144.805Y-74.43
X144.932Y-70.028
X144.932Y-70.561
X145.161Y-96.241
X145.212Y-85.471
X145.339Y-74.43
X145.39Y-107.145
X145.517Y-103.734
X145.809Y-76.898
X145.821Y-80.797
X145.999Y-97.079
X146.025Y-100.863
X146.075Y-73.33
X146.152Y-99.39
X146.202Y-77.876
X146.355Y-94.31
X146.406Y-84.912
X146.482Y-91.999
X146.736Y-103.734
X147.015Y-70.993
X147.015Y-71.577
X147.015Y-72.161
X147.015Y-93.548
X147.091Y-82.829
X147.879Y-93.548
X147.907Y-74.041
X147.907Y-74.574
X148.361Y-76.63
X148.361Y-78.943
X148.565Y-74.219
X148.717Y-90.627
X149.098Y-74.219
X149.784Y-79.248
X149.962Y-81.991
X149.987Y-97.638
X150.165Y-62.992
X150.19Y-92.253
X150.19Y-94.539
X150.24Y-75.589
X150.24Y-76.089
X150.24Y-76.589
X150.24Y-77.089
X150.317Y-95.527
X150.598Y-92.781
X150.74Y-75.589
X150.74Y-76.089
X150.74Y-76.589
X150.74Y-77.089
X150.774Y-79.197
X151.155Y-83.388
X151.24Y-75.589
X151.24Y-76.089
X151.24Y-76.589
X151.24Y-77.089
X151.562Y-79.807
X151.74Y-75.589
X151.74Y-76.089
X151.74Y-76.589
X151.74Y-77.089
X151.943Y-98.958
X152.019Y-70.028
X152.019Y-70.561
X152.222Y-81.483
X152.222Y-87.173
X152.603Y-70.028
X152.603Y-70.561
X153.01Y-78.33
X153.187Y-70.028
X153.187Y-70.561
X153.187Y-74.43
X153.67Y-98.019
X153.67Y-103.505
X153.721Y-74.43
X153.746Y-99.238
X154.0Y-73.279
X154.026Y-94.996
X154.102Y-91.0
X154.203Y-77.013
X154.254Y-83.922
X154.892Y-99.241
X154.915Y-82.55
X155.219Y-71.552
X155.219Y-72.111
X155.245Y-87.325
X155.25Y-96.144
X155.448Y-101.194
X155.832Y-73.965
X155.832Y-74.549
X156.083Y-99.365
X156.25Y-96.139
X156.388Y-83.414
X156.642Y-76.63
X156.693Y-74.27
X156.718Y-78.664
X156.718Y-107.594
X156.75Y-98.647
X157.175Y-62.967
X157.302Y-107.594
X157.328Y-74.27
X157.505Y-99.492
X158.025Y-79.113
X158.191Y-103.149
X158.191Y-103.708
X158.496Y-99.187
X158.52Y-75.614
X158.52Y-76.114
X158.52Y-76.614
X158.52Y-77.114
X158.852Y-103.149
X158.852Y-103.708
X158.912Y-104.632
X159.02Y-75.614
X159.02Y-76.114
X159.02Y-76.614
X159.02Y-77.114
X159.024Y-79.146
X159.25Y-87.706
X159.512Y-103.149
X159.52Y-75.614
X159.52Y-76.114
X159.52Y-76.614
X159.52Y-77.114
X159.563Y-95.58
X159.766Y-79.248
X159.842Y-102.235
X160.02Y-75.614
X160.02Y-76.114
X160.02Y-76.614
X160.02Y-77.114
X160.17Y-80.62
X160.376Y-70.51
X160.426Y-98.958
X160.503Y-95.91
X160.706Y-106.324
X160.706Y-106.985
X161.112Y-98.958
X161.138Y-79.07
X161.341Y-78.33
X161.442Y-71.069
X161.442Y-71.603
X161.442Y-72.136
X161.468Y-84.811
X161.62Y-101.27
X161.62Y-101.803
X161.747Y-87.351
X161.9Y-74.43
X162.204Y-101.27
X162.204Y-101.803
X162.23Y-73.304
X162.411Y-77.086
X162.789Y-73.304
X162.814Y-89.891
X163.246Y-107.62
X163.246Y-108.128
X163.297Y-98.956
X163.5Y-71.044
X163.5Y-71.603
X163.525Y-72.136
X163.574Y-101.295
X163.574Y-101.956
X163.754Y-107.62
X163.754Y-108.128
X163.855Y-84.582
X164.186Y-63.017
X164.209Y-101.295
X164.209Y-101.956
X164.391Y-74.016
X164.391Y-74.6
X164.49Y-104.445
X164.49Y-106.35
X164.846Y-76.63
X164.998Y-78.613
X165.049Y-96.469
X165.151Y-106.985
X165.354Y-73.914
X166.268Y-93.726
X166.472Y-101.448
X166.548Y-92.5
X166.649Y-89.487
X166.662Y-95.771
X166.775Y-75.614
X166.775Y-76.114
X166.775Y-76.614
X166.775Y-77.114
X166.802Y-90.449
X167.274Y-79.172
X167.275Y-75.614
X167.275Y-76.114
X167.275Y-76.614
X167.275Y-77.114
X167.437Y-83.007
X167.437Y-84.861
X167.775Y-75.614
X167.775Y-76.114
X167.775Y-76.614
X167.775Y-77.114
X168.224Y-104.14
X168.275Y-75.614
X168.275Y-76.114
X168.275Y-76.614
X168.275Y-77.114
X168.275Y-79.35
X168.3Y-82.728
X168.326Y-83.922
X168.326Y-85.75
X168.326Y-87.782
X168.351Y-100.762
X168.478Y-70.053
X168.478Y-70.587
X169.062Y-70.053
X169.062Y-70.587
X169.113Y-96.723
X169.418Y-94.285
X169.621Y-74.43
X169.647Y-70.053
X169.647Y-70.587
X169.697Y-88.773
X170.155Y-74.43
X170.155Y-107.594
X170.18Y-103.607
X170.307Y-97.18
X170.395Y-76.825
X170.663Y-70.307
X171.044Y-68.732
X171.247Y-70.307
X171.348Y-78.486
X171.653Y-71.044
X171.653Y-71.603
X171.653Y-72.161
X171.679Y-68.732
X172.187Y-84.811
X172.263Y-92.989
X172.771Y-87.935
X172.898Y-91.034
X174.092Y-69.063
X174.6Y-89.814
X174.777Y-69.063
X176.911Y-92.608
X178.079Y-62.484
X178.156Y-68.91
T3
X142.0Y-62.0
X142.0Y-64.0
X142.0Y-66.0
X142.0Y-68.0
X149.0Y-62.0
X149.0Y-64.0
X149.0Y-66.0
X149.0Y-68.0
X156.0Y-62.0
X156.0Y-64.0
X156.0Y-66.0
X156.0Y-68.0
X163.0Y-62.0
X163.0Y-64.0
X163.0Y-66.0
X163.0Y-68.0
X174.073Y-83.75
X174.079Y-64.25
X174.098Y-70.75
X174.098Y-77.25
X176.073Y-83.75
X176.079Y-64.25
X176.098Y-70.75
X176.098Y-77.25
X178.073Y-83.75
X178.079Y-64.25
X178.098Y-70.75
X178.098Y-77.25
X182.75Y-73.5
X182.75Y-75.5
X182.75Y-77.5
X182.75Y-79.5
X182.75Y-81.5
X182.75Y-83.5
X182.75Y-93.1
X182.75Y-95.1
X182.75Y-97.1
X182.75Y-102.9
X182.75Y-104.9
X182.75Y-106.9
X182.753Y-65.361
X182.753Y-67.361
T4
X129.46Y-98.12
X129.46Y-100.66
X129.46Y-103.2
X132.0Y-96.85
X132.0Y-99.39
X132.0Y-101.93
T5
X125.85Y-110.25
X125.85Y-112.79
X128.39Y-110.25
X128.39Y-112.79
X130.93Y-110.25
X130.93Y-112.79
X133.47Y-110.25
X133.47Y-112.79
X136.01Y-110.25
X136.01Y-112.79
X138.55Y-110.25
X138.55Y-112.79
X141.09Y-110.25
X141.09Y-112.79
X143.63Y-110.25
X143.63Y-112.79
X146.17Y-110.25
X146.17Y-112.79
X148.71Y-110.25
X148.71Y-112.79
X151.25Y-110.25
X151.25Y-112.79
X153.79Y-110.25
X153.79Y-112.79
X156.33Y-110.25
X156.33Y-112.79
X158.87Y-110.25
X158.87Y-112.79
X161.41Y-110.25
X161.41Y-112.79
X163.95Y-110.25
X163.95Y-112.79
X166.49Y-110.25
X166.49Y-112.79
X169.03Y-110.25
X169.03Y-112.79
X171.57Y-110.25
X171.57Y-112.79
X174.11Y-110.25
X174.11Y-112.79
X175.717Y-94.915
X175.717Y-97.455
T6
X120.14Y-93.235
X120.14Y-106.805
T7
X121.0Y-88.5
X121.0Y-111.5
X136.0Y-62.9
X169.0Y-62.9
X179.0Y-88.5
X179.0Y-111.5
T2
X128.919Y-73.354G85X128.399Y-73.054
G05
X132.755Y-75.569G85X131.803Y-75.019
G05
X133.239Y-65.871G85X132.719Y-65.571
G05
X137.075Y-68.086G85X136.123Y-67.536
G05
T5
X127.094Y-81.397G85X125.994Y-83.303
G05
X128.041Y-88.757G85X126.136Y-87.657
G05
X132.65Y-84.374G85X131.35Y-86.626
G05
M30
