%TF.GenerationSoftware,KiCad,Pcbnew,9.0.0*%
%TF.CreationDate,2025-07-27T15:36:47+02:00*%
%TF.ProjectId,PCK-ST1,50434b2d-5354-4312-9e6b-696361645f70,rev?*%
%TF.SameCoordinates,Original*%
%TF.FileFunction,Legend,Bot*%
%TF.FilePolarity,Positive*%
%FSLAX46Y46*%
G04 Gerber Fmt 4.6, Leading zero omitted, Abs format (unit mm)*
G04 Created by KiCad (PCBNEW 9.0.0) date 2025-07-27 15:36:47*
%MOMM*%
%LPD*%
G01*
G04 APERTURE LIST*
%ADD10C,0.125000*%
%ADD11C,0.120000*%
%ADD12C,0.200000*%
%ADD13C,0.100000*%
%ADD14C,0.050000*%
G04 APERTURE END LIST*
D10*
X185167964Y-93387932D02*
X185501297Y-93387932D01*
X185501297Y-93387932D02*
X185501297Y-92752932D01*
X184934630Y-93055313D02*
X184701297Y-93055313D01*
X184601297Y-93387932D02*
X184934630Y-93387932D01*
X184934630Y-93387932D02*
X184934630Y-92752932D01*
X184934630Y-92752932D02*
X184601297Y-92752932D01*
X184301297Y-93387932D02*
X184301297Y-92752932D01*
X184301297Y-92752932D02*
X184134630Y-92752932D01*
X184134630Y-92752932D02*
X184034630Y-92783170D01*
X184034630Y-92783170D02*
X183967964Y-92843646D01*
X183967964Y-92843646D02*
X183934630Y-92904122D01*
X183934630Y-92904122D02*
X183901297Y-93025074D01*
X183901297Y-93025074D02*
X183901297Y-93115789D01*
X183901297Y-93115789D02*
X183934630Y-93236741D01*
X183934630Y-93236741D02*
X183967964Y-93297217D01*
X183967964Y-93297217D02*
X184034630Y-93357694D01*
X184034630Y-93357694D02*
X184134630Y-93387932D01*
X184134630Y-93387932D02*
X184301297Y-93387932D01*
X185267964Y-95099941D02*
X185167964Y-95130179D01*
X185167964Y-95130179D02*
X185134630Y-95160417D01*
X185134630Y-95160417D02*
X185101297Y-95220893D01*
X185101297Y-95220893D02*
X185101297Y-95311607D01*
X185101297Y-95311607D02*
X185134630Y-95372083D01*
X185134630Y-95372083D02*
X185167964Y-95402322D01*
X185167964Y-95402322D02*
X185234630Y-95432560D01*
X185234630Y-95432560D02*
X185501297Y-95432560D01*
X185501297Y-95432560D02*
X185501297Y-94797560D01*
X185501297Y-94797560D02*
X185267964Y-94797560D01*
X185267964Y-94797560D02*
X185201297Y-94827798D01*
X185201297Y-94827798D02*
X185167964Y-94858036D01*
X185167964Y-94858036D02*
X185134630Y-94918512D01*
X185134630Y-94918512D02*
X185134630Y-94978988D01*
X185134630Y-94978988D02*
X185167964Y-95039464D01*
X185167964Y-95039464D02*
X185201297Y-95069702D01*
X185201297Y-95069702D02*
X185267964Y-95099941D01*
X185267964Y-95099941D02*
X185501297Y-95099941D01*
X184901297Y-94797560D02*
X184501297Y-94797560D01*
X184701297Y-95432560D02*
X184701297Y-94797560D01*
X184267964Y-95432560D02*
X184267964Y-94797560D01*
X184267964Y-94797560D02*
X183867964Y-95432560D01*
X183867964Y-95432560D02*
X183867964Y-94797560D01*
X185567964Y-96842188D02*
X185134630Y-96842188D01*
X185134630Y-96842188D02*
X185367964Y-97084092D01*
X185367964Y-97084092D02*
X185267964Y-97084092D01*
X185267964Y-97084092D02*
X185201297Y-97114330D01*
X185201297Y-97114330D02*
X185167964Y-97144569D01*
X185167964Y-97144569D02*
X185134630Y-97205045D01*
X185134630Y-97205045D02*
X185134630Y-97356235D01*
X185134630Y-97356235D02*
X185167964Y-97416711D01*
X185167964Y-97416711D02*
X185201297Y-97446950D01*
X185201297Y-97446950D02*
X185267964Y-97477188D01*
X185267964Y-97477188D02*
X185467964Y-97477188D01*
X185467964Y-97477188D02*
X185534630Y-97446950D01*
X185534630Y-97446950D02*
X185567964Y-97416711D01*
X184934630Y-96842188D02*
X184701297Y-97477188D01*
X184701297Y-97477188D02*
X184467963Y-96842188D01*
X184301297Y-96842188D02*
X183867963Y-96842188D01*
X183867963Y-96842188D02*
X184101297Y-97084092D01*
X184101297Y-97084092D02*
X184001297Y-97084092D01*
X184001297Y-97084092D02*
X183934630Y-97114330D01*
X183934630Y-97114330D02*
X183901297Y-97144569D01*
X183901297Y-97144569D02*
X183867963Y-97205045D01*
X183867963Y-97205045D02*
X183867963Y-97356235D01*
X183867963Y-97356235D02*
X183901297Y-97416711D01*
X183901297Y-97416711D02*
X183934630Y-97446950D01*
X183934630Y-97446950D02*
X184001297Y-97477188D01*
X184001297Y-97477188D02*
X184201297Y-97477188D01*
X184201297Y-97477188D02*
X184267963Y-97446950D01*
X184267963Y-97446950D02*
X184301297Y-97416711D01*
X179268764Y-72000988D02*
X178835430Y-72000988D01*
X178835430Y-72000988D02*
X179068764Y-72242892D01*
X179068764Y-72242892D02*
X178968764Y-72242892D01*
X178968764Y-72242892D02*
X178902097Y-72273130D01*
X178902097Y-72273130D02*
X178868764Y-72303369D01*
X178868764Y-72303369D02*
X178835430Y-72363845D01*
X178835430Y-72363845D02*
X178835430Y-72515035D01*
X178835430Y-72515035D02*
X178868764Y-72575511D01*
X178868764Y-72575511D02*
X178902097Y-72605750D01*
X178902097Y-72605750D02*
X178968764Y-72635988D01*
X178968764Y-72635988D02*
X179168764Y-72635988D01*
X179168764Y-72635988D02*
X179235430Y-72605750D01*
X179235430Y-72605750D02*
X179268764Y-72575511D01*
X178635430Y-72000988D02*
X178402097Y-72635988D01*
X178402097Y-72635988D02*
X178168763Y-72000988D01*
X178002097Y-72000988D02*
X177568763Y-72000988D01*
X177568763Y-72000988D02*
X177802097Y-72242892D01*
X177802097Y-72242892D02*
X177702097Y-72242892D01*
X177702097Y-72242892D02*
X177635430Y-72273130D01*
X177635430Y-72273130D02*
X177602097Y-72303369D01*
X177602097Y-72303369D02*
X177568763Y-72363845D01*
X177568763Y-72363845D02*
X177568763Y-72515035D01*
X177568763Y-72515035D02*
X177602097Y-72575511D01*
X177602097Y-72575511D02*
X177635430Y-72605750D01*
X177635430Y-72605750D02*
X177702097Y-72635988D01*
X177702097Y-72635988D02*
X177902097Y-72635988D01*
X177902097Y-72635988D02*
X177968763Y-72605750D01*
X177968763Y-72605750D02*
X178002097Y-72575511D01*
X176768763Y-72605750D02*
X176668763Y-72635988D01*
X176668763Y-72635988D02*
X176502097Y-72635988D01*
X176502097Y-72635988D02*
X176435430Y-72605750D01*
X176435430Y-72605750D02*
X176402097Y-72575511D01*
X176402097Y-72575511D02*
X176368763Y-72515035D01*
X176368763Y-72515035D02*
X176368763Y-72454559D01*
X176368763Y-72454559D02*
X176402097Y-72394083D01*
X176402097Y-72394083D02*
X176435430Y-72363845D01*
X176435430Y-72363845D02*
X176502097Y-72333607D01*
X176502097Y-72333607D02*
X176635430Y-72303369D01*
X176635430Y-72303369D02*
X176702097Y-72273130D01*
X176702097Y-72273130D02*
X176735430Y-72242892D01*
X176735430Y-72242892D02*
X176768763Y-72182416D01*
X176768763Y-72182416D02*
X176768763Y-72121940D01*
X176768763Y-72121940D02*
X176735430Y-72061464D01*
X176735430Y-72061464D02*
X176702097Y-72031226D01*
X176702097Y-72031226D02*
X176635430Y-72000988D01*
X176635430Y-72000988D02*
X176468763Y-72000988D01*
X176468763Y-72000988D02*
X176368763Y-72031226D01*
X176068763Y-72635988D02*
X176068763Y-72000988D01*
X175368763Y-72031226D02*
X175435430Y-72000988D01*
X175435430Y-72000988D02*
X175535430Y-72000988D01*
X175535430Y-72000988D02*
X175635430Y-72031226D01*
X175635430Y-72031226D02*
X175702097Y-72091702D01*
X175702097Y-72091702D02*
X175735430Y-72152178D01*
X175735430Y-72152178D02*
X175768763Y-72273130D01*
X175768763Y-72273130D02*
X175768763Y-72363845D01*
X175768763Y-72363845D02*
X175735430Y-72484797D01*
X175735430Y-72484797D02*
X175702097Y-72545273D01*
X175702097Y-72545273D02*
X175635430Y-72605750D01*
X175635430Y-72605750D02*
X175535430Y-72635988D01*
X175535430Y-72635988D02*
X175468763Y-72635988D01*
X175468763Y-72635988D02*
X175368763Y-72605750D01*
X175368763Y-72605750D02*
X175335430Y-72575511D01*
X175335430Y-72575511D02*
X175335430Y-72363845D01*
X175335430Y-72363845D02*
X175468763Y-72363845D01*
X174135430Y-72031226D02*
X174202097Y-72000988D01*
X174202097Y-72000988D02*
X174302097Y-72000988D01*
X174302097Y-72000988D02*
X174402097Y-72031226D01*
X174402097Y-72031226D02*
X174468764Y-72091702D01*
X174468764Y-72091702D02*
X174502097Y-72152178D01*
X174502097Y-72152178D02*
X174535430Y-72273130D01*
X174535430Y-72273130D02*
X174535430Y-72363845D01*
X174535430Y-72363845D02*
X174502097Y-72484797D01*
X174502097Y-72484797D02*
X174468764Y-72545273D01*
X174468764Y-72545273D02*
X174402097Y-72605750D01*
X174402097Y-72605750D02*
X174302097Y-72635988D01*
X174302097Y-72635988D02*
X174235430Y-72635988D01*
X174235430Y-72635988D02*
X174135430Y-72605750D01*
X174135430Y-72605750D02*
X174102097Y-72575511D01*
X174102097Y-72575511D02*
X174102097Y-72363845D01*
X174102097Y-72363845D02*
X174235430Y-72363845D01*
X173802097Y-72635988D02*
X173802097Y-72000988D01*
X173802097Y-72000988D02*
X173402097Y-72635988D01*
X173402097Y-72635988D02*
X173402097Y-72000988D01*
X173068764Y-72635988D02*
X173068764Y-72000988D01*
X173068764Y-72000988D02*
X172902097Y-72000988D01*
X172902097Y-72000988D02*
X172802097Y-72031226D01*
X172802097Y-72031226D02*
X172735431Y-72091702D01*
X172735431Y-72091702D02*
X172702097Y-72152178D01*
X172702097Y-72152178D02*
X172668764Y-72273130D01*
X172668764Y-72273130D02*
X172668764Y-72363845D01*
X172668764Y-72363845D02*
X172702097Y-72484797D01*
X172702097Y-72484797D02*
X172735431Y-72545273D01*
X172735431Y-72545273D02*
X172802097Y-72605750D01*
X172802097Y-72605750D02*
X172902097Y-72635988D01*
X172902097Y-72635988D02*
X173068764Y-72635988D01*
X179319564Y-65498588D02*
X178886230Y-65498588D01*
X178886230Y-65498588D02*
X179119564Y-65740492D01*
X179119564Y-65740492D02*
X179019564Y-65740492D01*
X179019564Y-65740492D02*
X178952897Y-65770730D01*
X178952897Y-65770730D02*
X178919564Y-65800969D01*
X178919564Y-65800969D02*
X178886230Y-65861445D01*
X178886230Y-65861445D02*
X178886230Y-66012635D01*
X178886230Y-66012635D02*
X178919564Y-66073111D01*
X178919564Y-66073111D02*
X178952897Y-66103350D01*
X178952897Y-66103350D02*
X179019564Y-66133588D01*
X179019564Y-66133588D02*
X179219564Y-66133588D01*
X179219564Y-66133588D02*
X179286230Y-66103350D01*
X179286230Y-66103350D02*
X179319564Y-66073111D01*
X178686230Y-65498588D02*
X178452897Y-66133588D01*
X178452897Y-66133588D02*
X178219563Y-65498588D01*
X178052897Y-65498588D02*
X177619563Y-65498588D01*
X177619563Y-65498588D02*
X177852897Y-65740492D01*
X177852897Y-65740492D02*
X177752897Y-65740492D01*
X177752897Y-65740492D02*
X177686230Y-65770730D01*
X177686230Y-65770730D02*
X177652897Y-65800969D01*
X177652897Y-65800969D02*
X177619563Y-65861445D01*
X177619563Y-65861445D02*
X177619563Y-66012635D01*
X177619563Y-66012635D02*
X177652897Y-66073111D01*
X177652897Y-66073111D02*
X177686230Y-66103350D01*
X177686230Y-66103350D02*
X177752897Y-66133588D01*
X177752897Y-66133588D02*
X177952897Y-66133588D01*
X177952897Y-66133588D02*
X178019563Y-66103350D01*
X178019563Y-66103350D02*
X178052897Y-66073111D01*
X176819563Y-66103350D02*
X176719563Y-66133588D01*
X176719563Y-66133588D02*
X176552897Y-66133588D01*
X176552897Y-66133588D02*
X176486230Y-66103350D01*
X176486230Y-66103350D02*
X176452897Y-66073111D01*
X176452897Y-66073111D02*
X176419563Y-66012635D01*
X176419563Y-66012635D02*
X176419563Y-65952159D01*
X176419563Y-65952159D02*
X176452897Y-65891683D01*
X176452897Y-65891683D02*
X176486230Y-65861445D01*
X176486230Y-65861445D02*
X176552897Y-65831207D01*
X176552897Y-65831207D02*
X176686230Y-65800969D01*
X176686230Y-65800969D02*
X176752897Y-65770730D01*
X176752897Y-65770730D02*
X176786230Y-65740492D01*
X176786230Y-65740492D02*
X176819563Y-65680016D01*
X176819563Y-65680016D02*
X176819563Y-65619540D01*
X176819563Y-65619540D02*
X176786230Y-65559064D01*
X176786230Y-65559064D02*
X176752897Y-65528826D01*
X176752897Y-65528826D02*
X176686230Y-65498588D01*
X176686230Y-65498588D02*
X176519563Y-65498588D01*
X176519563Y-65498588D02*
X176419563Y-65528826D01*
X176119563Y-66133588D02*
X176119563Y-65498588D01*
X175419563Y-65528826D02*
X175486230Y-65498588D01*
X175486230Y-65498588D02*
X175586230Y-65498588D01*
X175586230Y-65498588D02*
X175686230Y-65528826D01*
X175686230Y-65528826D02*
X175752897Y-65589302D01*
X175752897Y-65589302D02*
X175786230Y-65649778D01*
X175786230Y-65649778D02*
X175819563Y-65770730D01*
X175819563Y-65770730D02*
X175819563Y-65861445D01*
X175819563Y-65861445D02*
X175786230Y-65982397D01*
X175786230Y-65982397D02*
X175752897Y-66042873D01*
X175752897Y-66042873D02*
X175686230Y-66103350D01*
X175686230Y-66103350D02*
X175586230Y-66133588D01*
X175586230Y-66133588D02*
X175519563Y-66133588D01*
X175519563Y-66133588D02*
X175419563Y-66103350D01*
X175419563Y-66103350D02*
X175386230Y-66073111D01*
X175386230Y-66073111D02*
X175386230Y-65861445D01*
X175386230Y-65861445D02*
X175519563Y-65861445D01*
X174186230Y-65528826D02*
X174252897Y-65498588D01*
X174252897Y-65498588D02*
X174352897Y-65498588D01*
X174352897Y-65498588D02*
X174452897Y-65528826D01*
X174452897Y-65528826D02*
X174519564Y-65589302D01*
X174519564Y-65589302D02*
X174552897Y-65649778D01*
X174552897Y-65649778D02*
X174586230Y-65770730D01*
X174586230Y-65770730D02*
X174586230Y-65861445D01*
X174586230Y-65861445D02*
X174552897Y-65982397D01*
X174552897Y-65982397D02*
X174519564Y-66042873D01*
X174519564Y-66042873D02*
X174452897Y-66103350D01*
X174452897Y-66103350D02*
X174352897Y-66133588D01*
X174352897Y-66133588D02*
X174286230Y-66133588D01*
X174286230Y-66133588D02*
X174186230Y-66103350D01*
X174186230Y-66103350D02*
X174152897Y-66073111D01*
X174152897Y-66073111D02*
X174152897Y-65861445D01*
X174152897Y-65861445D02*
X174286230Y-65861445D01*
X173852897Y-66133588D02*
X173852897Y-65498588D01*
X173852897Y-65498588D02*
X173452897Y-66133588D01*
X173452897Y-66133588D02*
X173452897Y-65498588D01*
X173119564Y-66133588D02*
X173119564Y-65498588D01*
X173119564Y-65498588D02*
X172952897Y-65498588D01*
X172952897Y-65498588D02*
X172852897Y-65528826D01*
X172852897Y-65528826D02*
X172786231Y-65589302D01*
X172786231Y-65589302D02*
X172752897Y-65649778D01*
X172752897Y-65649778D02*
X172719564Y-65770730D01*
X172719564Y-65770730D02*
X172719564Y-65861445D01*
X172719564Y-65861445D02*
X172752897Y-65982397D01*
X172752897Y-65982397D02*
X172786231Y-66042873D01*
X172786231Y-66042873D02*
X172852897Y-66103350D01*
X172852897Y-66103350D02*
X172952897Y-66133588D01*
X172952897Y-66133588D02*
X173119564Y-66133588D01*
X185287030Y-65663760D02*
X185687030Y-65663760D01*
X185487030Y-65663760D02*
X185487030Y-65028760D01*
X185487030Y-65028760D02*
X185553697Y-65119474D01*
X185553697Y-65119474D02*
X185620364Y-65179950D01*
X185620364Y-65179950D02*
X185687030Y-65210188D01*
X185020363Y-65089236D02*
X184987030Y-65058998D01*
X184987030Y-65058998D02*
X184920363Y-65028760D01*
X184920363Y-65028760D02*
X184753697Y-65028760D01*
X184753697Y-65028760D02*
X184687030Y-65058998D01*
X184687030Y-65058998D02*
X184653697Y-65089236D01*
X184653697Y-65089236D02*
X184620363Y-65149712D01*
X184620363Y-65149712D02*
X184620363Y-65210188D01*
X184620363Y-65210188D02*
X184653697Y-65300902D01*
X184653697Y-65300902D02*
X185053697Y-65663760D01*
X185053697Y-65663760D02*
X184620363Y-65663760D01*
X184420363Y-65028760D02*
X184187030Y-65663760D01*
X184187030Y-65663760D02*
X183953696Y-65028760D01*
X185287030Y-67103626D02*
X185353697Y-67073388D01*
X185353697Y-67073388D02*
X185453697Y-67073388D01*
X185453697Y-67073388D02*
X185553697Y-67103626D01*
X185553697Y-67103626D02*
X185620364Y-67164102D01*
X185620364Y-67164102D02*
X185653697Y-67224578D01*
X185653697Y-67224578D02*
X185687030Y-67345530D01*
X185687030Y-67345530D02*
X185687030Y-67436245D01*
X185687030Y-67436245D02*
X185653697Y-67557197D01*
X185653697Y-67557197D02*
X185620364Y-67617673D01*
X185620364Y-67617673D02*
X185553697Y-67678150D01*
X185553697Y-67678150D02*
X185453697Y-67708388D01*
X185453697Y-67708388D02*
X185387030Y-67708388D01*
X185387030Y-67708388D02*
X185287030Y-67678150D01*
X185287030Y-67678150D02*
X185253697Y-67647911D01*
X185253697Y-67647911D02*
X185253697Y-67436245D01*
X185253697Y-67436245D02*
X185387030Y-67436245D01*
X184953697Y-67708388D02*
X184953697Y-67073388D01*
X184953697Y-67073388D02*
X184553697Y-67708388D01*
X184553697Y-67708388D02*
X184553697Y-67073388D01*
X184220364Y-67708388D02*
X184220364Y-67073388D01*
X184220364Y-67073388D02*
X184053697Y-67073388D01*
X184053697Y-67073388D02*
X183953697Y-67103626D01*
X183953697Y-67103626D02*
X183887031Y-67164102D01*
X183887031Y-67164102D02*
X183853697Y-67224578D01*
X183853697Y-67224578D02*
X183820364Y-67345530D01*
X183820364Y-67345530D02*
X183820364Y-67436245D01*
X183820364Y-67436245D02*
X183853697Y-67557197D01*
X183853697Y-67557197D02*
X183887031Y-67617673D01*
X183887031Y-67617673D02*
X183953697Y-67678150D01*
X183953697Y-67678150D02*
X184053697Y-67708388D01*
X184053697Y-67708388D02*
X184220364Y-67708388D01*
X157962964Y-61874692D02*
X157862964Y-61905644D01*
X157862964Y-61905644D02*
X157829630Y-61936596D01*
X157829630Y-61936596D02*
X157796297Y-61998501D01*
X157796297Y-61998501D02*
X157796297Y-62091358D01*
X157796297Y-62091358D02*
X157829630Y-62153263D01*
X157829630Y-62153263D02*
X157862964Y-62184216D01*
X157862964Y-62184216D02*
X157929630Y-62215168D01*
X157929630Y-62215168D02*
X158196297Y-62215168D01*
X158196297Y-62215168D02*
X158196297Y-61565168D01*
X158196297Y-61565168D02*
X157962964Y-61565168D01*
X157962964Y-61565168D02*
X157896297Y-61596120D01*
X157896297Y-61596120D02*
X157862964Y-61627073D01*
X157862964Y-61627073D02*
X157829630Y-61688977D01*
X157829630Y-61688977D02*
X157829630Y-61750882D01*
X157829630Y-61750882D02*
X157862964Y-61812787D01*
X157862964Y-61812787D02*
X157896297Y-61843739D01*
X157896297Y-61843739D02*
X157962964Y-61874692D01*
X157962964Y-61874692D02*
X158196297Y-61874692D01*
X157129630Y-62215168D02*
X157529630Y-62215168D01*
X157329630Y-62215168D02*
X157329630Y-61565168D01*
X157329630Y-61565168D02*
X157396297Y-61658025D01*
X157396297Y-61658025D02*
X157462964Y-61719930D01*
X157462964Y-61719930D02*
X157529630Y-61750882D01*
X157962964Y-63967620D02*
X157862964Y-63998572D01*
X157862964Y-63998572D02*
X157829630Y-64029524D01*
X157829630Y-64029524D02*
X157796297Y-64091429D01*
X157796297Y-64091429D02*
X157796297Y-64184286D01*
X157796297Y-64184286D02*
X157829630Y-64246191D01*
X157829630Y-64246191D02*
X157862964Y-64277144D01*
X157862964Y-64277144D02*
X157929630Y-64308096D01*
X157929630Y-64308096D02*
X158196297Y-64308096D01*
X158196297Y-64308096D02*
X158196297Y-63658096D01*
X158196297Y-63658096D02*
X157962964Y-63658096D01*
X157962964Y-63658096D02*
X157896297Y-63689048D01*
X157896297Y-63689048D02*
X157862964Y-63720001D01*
X157862964Y-63720001D02*
X157829630Y-63781905D01*
X157829630Y-63781905D02*
X157829630Y-63843810D01*
X157829630Y-63843810D02*
X157862964Y-63905715D01*
X157862964Y-63905715D02*
X157896297Y-63936667D01*
X157896297Y-63936667D02*
X157962964Y-63967620D01*
X157962964Y-63967620D02*
X158196297Y-63967620D01*
X157529630Y-63720001D02*
X157496297Y-63689048D01*
X157496297Y-63689048D02*
X157429630Y-63658096D01*
X157429630Y-63658096D02*
X157262964Y-63658096D01*
X157262964Y-63658096D02*
X157196297Y-63689048D01*
X157196297Y-63689048D02*
X157162964Y-63720001D01*
X157162964Y-63720001D02*
X157129630Y-63781905D01*
X157129630Y-63781905D02*
X157129630Y-63843810D01*
X157129630Y-63843810D02*
X157162964Y-63936667D01*
X157162964Y-63936667D02*
X157562964Y-64308096D01*
X157562964Y-64308096D02*
X157129630Y-64308096D01*
X158229630Y-66215310D02*
X157896297Y-66215310D01*
X158296297Y-66401024D02*
X158062964Y-65751024D01*
X158062964Y-65751024D02*
X157829630Y-66401024D01*
X157629630Y-65812929D02*
X157596297Y-65781976D01*
X157596297Y-65781976D02*
X157529630Y-65751024D01*
X157529630Y-65751024D02*
X157362964Y-65751024D01*
X157362964Y-65751024D02*
X157296297Y-65781976D01*
X157296297Y-65781976D02*
X157262964Y-65812929D01*
X157262964Y-65812929D02*
X157229630Y-65874833D01*
X157229630Y-65874833D02*
X157229630Y-65936738D01*
X157229630Y-65936738D02*
X157262964Y-66029595D01*
X157262964Y-66029595D02*
X157662964Y-66401024D01*
X157662964Y-66401024D02*
X157229630Y-66401024D01*
X158229630Y-68308238D02*
X157896297Y-68308238D01*
X158296297Y-68493952D02*
X158062964Y-67843952D01*
X158062964Y-67843952D02*
X157829630Y-68493952D01*
X157229630Y-68493952D02*
X157629630Y-68493952D01*
X157429630Y-68493952D02*
X157429630Y-67843952D01*
X157429630Y-67843952D02*
X157496297Y-67936809D01*
X157496297Y-67936809D02*
X157562964Y-67998714D01*
X157562964Y-67998714D02*
X157629630Y-68029666D01*
X185261630Y-102612970D02*
X185328297Y-102582732D01*
X185328297Y-102582732D02*
X185428297Y-102582732D01*
X185428297Y-102582732D02*
X185528297Y-102612970D01*
X185528297Y-102612970D02*
X185594964Y-102673446D01*
X185594964Y-102673446D02*
X185628297Y-102733922D01*
X185628297Y-102733922D02*
X185661630Y-102854874D01*
X185661630Y-102854874D02*
X185661630Y-102945589D01*
X185661630Y-102945589D02*
X185628297Y-103066541D01*
X185628297Y-103066541D02*
X185594964Y-103127017D01*
X185594964Y-103127017D02*
X185528297Y-103187494D01*
X185528297Y-103187494D02*
X185428297Y-103217732D01*
X185428297Y-103217732D02*
X185361630Y-103217732D01*
X185361630Y-103217732D02*
X185261630Y-103187494D01*
X185261630Y-103187494D02*
X185228297Y-103157255D01*
X185228297Y-103157255D02*
X185228297Y-102945589D01*
X185228297Y-102945589D02*
X185361630Y-102945589D01*
X184928297Y-103217732D02*
X184928297Y-102582732D01*
X184928297Y-102582732D02*
X184528297Y-103217732D01*
X184528297Y-103217732D02*
X184528297Y-102582732D01*
X184194964Y-103217732D02*
X184194964Y-102582732D01*
X184194964Y-102582732D02*
X184028297Y-102582732D01*
X184028297Y-102582732D02*
X183928297Y-102612970D01*
X183928297Y-102612970D02*
X183861631Y-102673446D01*
X183861631Y-102673446D02*
X183828297Y-102733922D01*
X183828297Y-102733922D02*
X183794964Y-102854874D01*
X183794964Y-102854874D02*
X183794964Y-102945589D01*
X183794964Y-102945589D02*
X183828297Y-103066541D01*
X183828297Y-103066541D02*
X183861631Y-103127017D01*
X183861631Y-103127017D02*
X183928297Y-103187494D01*
X183928297Y-103187494D02*
X184028297Y-103217732D01*
X184028297Y-103217732D02*
X184194964Y-103217732D01*
X185394964Y-104929741D02*
X185628297Y-104929741D01*
X185628297Y-105262360D02*
X185628297Y-104627360D01*
X185628297Y-104627360D02*
X185294964Y-104627360D01*
X184628297Y-105201883D02*
X184661630Y-105232122D01*
X184661630Y-105232122D02*
X184761630Y-105262360D01*
X184761630Y-105262360D02*
X184828297Y-105262360D01*
X184828297Y-105262360D02*
X184928297Y-105232122D01*
X184928297Y-105232122D02*
X184994964Y-105171645D01*
X184994964Y-105171645D02*
X185028297Y-105111169D01*
X185028297Y-105111169D02*
X185061630Y-104990217D01*
X185061630Y-104990217D02*
X185061630Y-104899502D01*
X185061630Y-104899502D02*
X185028297Y-104778550D01*
X185028297Y-104778550D02*
X184994964Y-104718074D01*
X184994964Y-104718074D02*
X184928297Y-104657598D01*
X184928297Y-104657598D02*
X184828297Y-104627360D01*
X184828297Y-104627360D02*
X184761630Y-104627360D01*
X184761630Y-104627360D02*
X184661630Y-104657598D01*
X184661630Y-104657598D02*
X184628297Y-104687836D01*
X184361630Y-105232122D02*
X184261630Y-105262360D01*
X184261630Y-105262360D02*
X184094964Y-105262360D01*
X184094964Y-105262360D02*
X184028297Y-105232122D01*
X184028297Y-105232122D02*
X183994964Y-105201883D01*
X183994964Y-105201883D02*
X183961630Y-105141407D01*
X183961630Y-105141407D02*
X183961630Y-105080931D01*
X183961630Y-105080931D02*
X183994964Y-105020455D01*
X183994964Y-105020455D02*
X184028297Y-104990217D01*
X184028297Y-104990217D02*
X184094964Y-104959979D01*
X184094964Y-104959979D02*
X184228297Y-104929741D01*
X184228297Y-104929741D02*
X184294964Y-104899502D01*
X184294964Y-104899502D02*
X184328297Y-104869264D01*
X184328297Y-104869264D02*
X184361630Y-104808788D01*
X184361630Y-104808788D02*
X184361630Y-104748312D01*
X184361630Y-104748312D02*
X184328297Y-104687836D01*
X184328297Y-104687836D02*
X184294964Y-104657598D01*
X184294964Y-104657598D02*
X184228297Y-104627360D01*
X184228297Y-104627360D02*
X184061630Y-104627360D01*
X184061630Y-104627360D02*
X183961630Y-104657598D01*
X185661630Y-107276750D02*
X185561630Y-107306988D01*
X185561630Y-107306988D02*
X185394964Y-107306988D01*
X185394964Y-107306988D02*
X185328297Y-107276750D01*
X185328297Y-107276750D02*
X185294964Y-107246511D01*
X185294964Y-107246511D02*
X185261630Y-107186035D01*
X185261630Y-107186035D02*
X185261630Y-107125559D01*
X185261630Y-107125559D02*
X185294964Y-107065083D01*
X185294964Y-107065083D02*
X185328297Y-107034845D01*
X185328297Y-107034845D02*
X185394964Y-107004607D01*
X185394964Y-107004607D02*
X185528297Y-106974369D01*
X185528297Y-106974369D02*
X185594964Y-106944130D01*
X185594964Y-106944130D02*
X185628297Y-106913892D01*
X185628297Y-106913892D02*
X185661630Y-106853416D01*
X185661630Y-106853416D02*
X185661630Y-106792940D01*
X185661630Y-106792940D02*
X185628297Y-106732464D01*
X185628297Y-106732464D02*
X185594964Y-106702226D01*
X185594964Y-106702226D02*
X185528297Y-106671988D01*
X185528297Y-106671988D02*
X185361630Y-106671988D01*
X185361630Y-106671988D02*
X185261630Y-106702226D01*
X185061630Y-106671988D02*
X184661630Y-106671988D01*
X184861630Y-107306988D02*
X184861630Y-106671988D01*
X184028297Y-107306988D02*
X184261630Y-107004607D01*
X184428297Y-107306988D02*
X184428297Y-106671988D01*
X184428297Y-106671988D02*
X184161630Y-106671988D01*
X184161630Y-106671988D02*
X184094964Y-106702226D01*
X184094964Y-106702226D02*
X184061630Y-106732464D01*
X184061630Y-106732464D02*
X184028297Y-106792940D01*
X184028297Y-106792940D02*
X184028297Y-106883654D01*
X184028297Y-106883654D02*
X184061630Y-106944130D01*
X184061630Y-106944130D02*
X184094964Y-106974369D01*
X184094964Y-106974369D02*
X184161630Y-107004607D01*
X184161630Y-107004607D02*
X184428297Y-107004607D01*
X185236230Y-73130172D02*
X185302897Y-73099934D01*
X185302897Y-73099934D02*
X185402897Y-73099934D01*
X185402897Y-73099934D02*
X185502897Y-73130172D01*
X185502897Y-73130172D02*
X185569564Y-73190648D01*
X185569564Y-73190648D02*
X185602897Y-73251124D01*
X185602897Y-73251124D02*
X185636230Y-73372076D01*
X185636230Y-73372076D02*
X185636230Y-73462791D01*
X185636230Y-73462791D02*
X185602897Y-73583743D01*
X185602897Y-73583743D02*
X185569564Y-73644219D01*
X185569564Y-73644219D02*
X185502897Y-73704696D01*
X185502897Y-73704696D02*
X185402897Y-73734934D01*
X185402897Y-73734934D02*
X185336230Y-73734934D01*
X185336230Y-73734934D02*
X185236230Y-73704696D01*
X185236230Y-73704696D02*
X185202897Y-73674457D01*
X185202897Y-73674457D02*
X185202897Y-73462791D01*
X185202897Y-73462791D02*
X185336230Y-73462791D01*
X184902897Y-73734934D02*
X184902897Y-73099934D01*
X184902897Y-73099934D02*
X184502897Y-73734934D01*
X184502897Y-73734934D02*
X184502897Y-73099934D01*
X184169564Y-73734934D02*
X184169564Y-73099934D01*
X184169564Y-73099934D02*
X184002897Y-73099934D01*
X184002897Y-73099934D02*
X183902897Y-73130172D01*
X183902897Y-73130172D02*
X183836231Y-73190648D01*
X183836231Y-73190648D02*
X183802897Y-73251124D01*
X183802897Y-73251124D02*
X183769564Y-73372076D01*
X183769564Y-73372076D02*
X183769564Y-73462791D01*
X183769564Y-73462791D02*
X183802897Y-73583743D01*
X183802897Y-73583743D02*
X183836231Y-73644219D01*
X183836231Y-73644219D02*
X183902897Y-73704696D01*
X183902897Y-73704696D02*
X184002897Y-73734934D01*
X184002897Y-73734934D02*
X184169564Y-73734934D01*
X185669564Y-75144562D02*
X185236230Y-75144562D01*
X185236230Y-75144562D02*
X185469564Y-75386466D01*
X185469564Y-75386466D02*
X185369564Y-75386466D01*
X185369564Y-75386466D02*
X185302897Y-75416704D01*
X185302897Y-75416704D02*
X185269564Y-75446943D01*
X185269564Y-75446943D02*
X185236230Y-75507419D01*
X185236230Y-75507419D02*
X185236230Y-75658609D01*
X185236230Y-75658609D02*
X185269564Y-75719085D01*
X185269564Y-75719085D02*
X185302897Y-75749324D01*
X185302897Y-75749324D02*
X185369564Y-75779562D01*
X185369564Y-75779562D02*
X185569564Y-75779562D01*
X185569564Y-75779562D02*
X185636230Y-75749324D01*
X185636230Y-75749324D02*
X185669564Y-75719085D01*
X185036230Y-75144562D02*
X184802897Y-75779562D01*
X184802897Y-75779562D02*
X184569563Y-75144562D01*
X184402897Y-75144562D02*
X183969563Y-75144562D01*
X183969563Y-75144562D02*
X184202897Y-75386466D01*
X184202897Y-75386466D02*
X184102897Y-75386466D01*
X184102897Y-75386466D02*
X184036230Y-75416704D01*
X184036230Y-75416704D02*
X184002897Y-75446943D01*
X184002897Y-75446943D02*
X183969563Y-75507419D01*
X183969563Y-75507419D02*
X183969563Y-75658609D01*
X183969563Y-75658609D02*
X184002897Y-75719085D01*
X184002897Y-75719085D02*
X184036230Y-75749324D01*
X184036230Y-75749324D02*
X184102897Y-75779562D01*
X184102897Y-75779562D02*
X184302897Y-75779562D01*
X184302897Y-75779562D02*
X184369563Y-75749324D01*
X184369563Y-75749324D02*
X184402897Y-75719085D01*
X185702897Y-77189190D02*
X185302897Y-77189190D01*
X185502897Y-77824190D02*
X185502897Y-77189190D01*
X185136231Y-77189190D02*
X184669564Y-77824190D01*
X184669564Y-77189190D02*
X185136231Y-77824190D01*
X185202897Y-79868818D02*
X185436230Y-79566437D01*
X185602897Y-79868818D02*
X185602897Y-79233818D01*
X185602897Y-79233818D02*
X185336230Y-79233818D01*
X185336230Y-79233818D02*
X185269564Y-79264056D01*
X185269564Y-79264056D02*
X185236230Y-79294294D01*
X185236230Y-79294294D02*
X185202897Y-79354770D01*
X185202897Y-79354770D02*
X185202897Y-79445484D01*
X185202897Y-79445484D02*
X185236230Y-79505960D01*
X185236230Y-79505960D02*
X185269564Y-79536199D01*
X185269564Y-79536199D02*
X185336230Y-79566437D01*
X185336230Y-79566437D02*
X185602897Y-79566437D01*
X184969564Y-79233818D02*
X184502897Y-79868818D01*
X184502897Y-79233818D02*
X184969564Y-79868818D01*
X185636230Y-81883208D02*
X185536230Y-81913446D01*
X185536230Y-81913446D02*
X185369564Y-81913446D01*
X185369564Y-81913446D02*
X185302897Y-81883208D01*
X185302897Y-81883208D02*
X185269564Y-81852969D01*
X185269564Y-81852969D02*
X185236230Y-81792493D01*
X185236230Y-81792493D02*
X185236230Y-81732017D01*
X185236230Y-81732017D02*
X185269564Y-81671541D01*
X185269564Y-81671541D02*
X185302897Y-81641303D01*
X185302897Y-81641303D02*
X185369564Y-81611065D01*
X185369564Y-81611065D02*
X185502897Y-81580827D01*
X185502897Y-81580827D02*
X185569564Y-81550588D01*
X185569564Y-81550588D02*
X185602897Y-81520350D01*
X185602897Y-81520350D02*
X185636230Y-81459874D01*
X185636230Y-81459874D02*
X185636230Y-81399398D01*
X185636230Y-81399398D02*
X185602897Y-81338922D01*
X185602897Y-81338922D02*
X185569564Y-81308684D01*
X185569564Y-81308684D02*
X185502897Y-81278446D01*
X185502897Y-81278446D02*
X185336230Y-81278446D01*
X185336230Y-81278446D02*
X185236230Y-81308684D01*
X184936230Y-81913446D02*
X184936230Y-81278446D01*
X184936230Y-81278446D02*
X184769563Y-81278446D01*
X184769563Y-81278446D02*
X184669563Y-81308684D01*
X184669563Y-81308684D02*
X184602897Y-81369160D01*
X184602897Y-81369160D02*
X184569563Y-81429636D01*
X184569563Y-81429636D02*
X184536230Y-81550588D01*
X184536230Y-81550588D02*
X184536230Y-81641303D01*
X184536230Y-81641303D02*
X184569563Y-81762255D01*
X184569563Y-81762255D02*
X184602897Y-81822731D01*
X184602897Y-81822731D02*
X184669563Y-81883208D01*
X184669563Y-81883208D02*
X184769563Y-81913446D01*
X184769563Y-81913446D02*
X184936230Y-81913446D01*
X184269563Y-81732017D02*
X183936230Y-81732017D01*
X184336230Y-81913446D02*
X184102897Y-81278446D01*
X184102897Y-81278446D02*
X183869563Y-81913446D01*
X185636230Y-83927836D02*
X185536230Y-83958074D01*
X185536230Y-83958074D02*
X185369564Y-83958074D01*
X185369564Y-83958074D02*
X185302897Y-83927836D01*
X185302897Y-83927836D02*
X185269564Y-83897597D01*
X185269564Y-83897597D02*
X185236230Y-83837121D01*
X185236230Y-83837121D02*
X185236230Y-83776645D01*
X185236230Y-83776645D02*
X185269564Y-83716169D01*
X185269564Y-83716169D02*
X185302897Y-83685931D01*
X185302897Y-83685931D02*
X185369564Y-83655693D01*
X185369564Y-83655693D02*
X185502897Y-83625455D01*
X185502897Y-83625455D02*
X185569564Y-83595216D01*
X185569564Y-83595216D02*
X185602897Y-83564978D01*
X185602897Y-83564978D02*
X185636230Y-83504502D01*
X185636230Y-83504502D02*
X185636230Y-83444026D01*
X185636230Y-83444026D02*
X185602897Y-83383550D01*
X185602897Y-83383550D02*
X185569564Y-83353312D01*
X185569564Y-83353312D02*
X185502897Y-83323074D01*
X185502897Y-83323074D02*
X185336230Y-83323074D01*
X185336230Y-83323074D02*
X185236230Y-83353312D01*
X184536230Y-83897597D02*
X184569563Y-83927836D01*
X184569563Y-83927836D02*
X184669563Y-83958074D01*
X184669563Y-83958074D02*
X184736230Y-83958074D01*
X184736230Y-83958074D02*
X184836230Y-83927836D01*
X184836230Y-83927836D02*
X184902897Y-83867359D01*
X184902897Y-83867359D02*
X184936230Y-83806883D01*
X184936230Y-83806883D02*
X184969563Y-83685931D01*
X184969563Y-83685931D02*
X184969563Y-83595216D01*
X184969563Y-83595216D02*
X184936230Y-83474264D01*
X184936230Y-83474264D02*
X184902897Y-83413788D01*
X184902897Y-83413788D02*
X184836230Y-83353312D01*
X184836230Y-83353312D02*
X184736230Y-83323074D01*
X184736230Y-83323074D02*
X184669563Y-83323074D01*
X184669563Y-83323074D02*
X184569563Y-83353312D01*
X184569563Y-83353312D02*
X184536230Y-83383550D01*
X183902897Y-83958074D02*
X184236230Y-83958074D01*
X184236230Y-83958074D02*
X184236230Y-83323074D01*
X179294164Y-78503388D02*
X178860830Y-78503388D01*
X178860830Y-78503388D02*
X179094164Y-78745292D01*
X179094164Y-78745292D02*
X178994164Y-78745292D01*
X178994164Y-78745292D02*
X178927497Y-78775530D01*
X178927497Y-78775530D02*
X178894164Y-78805769D01*
X178894164Y-78805769D02*
X178860830Y-78866245D01*
X178860830Y-78866245D02*
X178860830Y-79017435D01*
X178860830Y-79017435D02*
X178894164Y-79077911D01*
X178894164Y-79077911D02*
X178927497Y-79108150D01*
X178927497Y-79108150D02*
X178994164Y-79138388D01*
X178994164Y-79138388D02*
X179194164Y-79138388D01*
X179194164Y-79138388D02*
X179260830Y-79108150D01*
X179260830Y-79108150D02*
X179294164Y-79077911D01*
X178660830Y-78503388D02*
X178427497Y-79138388D01*
X178427497Y-79138388D02*
X178194163Y-78503388D01*
X178027497Y-78503388D02*
X177594163Y-78503388D01*
X177594163Y-78503388D02*
X177827497Y-78745292D01*
X177827497Y-78745292D02*
X177727497Y-78745292D01*
X177727497Y-78745292D02*
X177660830Y-78775530D01*
X177660830Y-78775530D02*
X177627497Y-78805769D01*
X177627497Y-78805769D02*
X177594163Y-78866245D01*
X177594163Y-78866245D02*
X177594163Y-79017435D01*
X177594163Y-79017435D02*
X177627497Y-79077911D01*
X177627497Y-79077911D02*
X177660830Y-79108150D01*
X177660830Y-79108150D02*
X177727497Y-79138388D01*
X177727497Y-79138388D02*
X177927497Y-79138388D01*
X177927497Y-79138388D02*
X177994163Y-79108150D01*
X177994163Y-79108150D02*
X178027497Y-79077911D01*
X176794163Y-79108150D02*
X176694163Y-79138388D01*
X176694163Y-79138388D02*
X176527497Y-79138388D01*
X176527497Y-79138388D02*
X176460830Y-79108150D01*
X176460830Y-79108150D02*
X176427497Y-79077911D01*
X176427497Y-79077911D02*
X176394163Y-79017435D01*
X176394163Y-79017435D02*
X176394163Y-78956959D01*
X176394163Y-78956959D02*
X176427497Y-78896483D01*
X176427497Y-78896483D02*
X176460830Y-78866245D01*
X176460830Y-78866245D02*
X176527497Y-78836007D01*
X176527497Y-78836007D02*
X176660830Y-78805769D01*
X176660830Y-78805769D02*
X176727497Y-78775530D01*
X176727497Y-78775530D02*
X176760830Y-78745292D01*
X176760830Y-78745292D02*
X176794163Y-78684816D01*
X176794163Y-78684816D02*
X176794163Y-78624340D01*
X176794163Y-78624340D02*
X176760830Y-78563864D01*
X176760830Y-78563864D02*
X176727497Y-78533626D01*
X176727497Y-78533626D02*
X176660830Y-78503388D01*
X176660830Y-78503388D02*
X176494163Y-78503388D01*
X176494163Y-78503388D02*
X176394163Y-78533626D01*
X176094163Y-79138388D02*
X176094163Y-78503388D01*
X175394163Y-78533626D02*
X175460830Y-78503388D01*
X175460830Y-78503388D02*
X175560830Y-78503388D01*
X175560830Y-78503388D02*
X175660830Y-78533626D01*
X175660830Y-78533626D02*
X175727497Y-78594102D01*
X175727497Y-78594102D02*
X175760830Y-78654578D01*
X175760830Y-78654578D02*
X175794163Y-78775530D01*
X175794163Y-78775530D02*
X175794163Y-78866245D01*
X175794163Y-78866245D02*
X175760830Y-78987197D01*
X175760830Y-78987197D02*
X175727497Y-79047673D01*
X175727497Y-79047673D02*
X175660830Y-79108150D01*
X175660830Y-79108150D02*
X175560830Y-79138388D01*
X175560830Y-79138388D02*
X175494163Y-79138388D01*
X175494163Y-79138388D02*
X175394163Y-79108150D01*
X175394163Y-79108150D02*
X175360830Y-79077911D01*
X175360830Y-79077911D02*
X175360830Y-78866245D01*
X175360830Y-78866245D02*
X175494163Y-78866245D01*
X174160830Y-78533626D02*
X174227497Y-78503388D01*
X174227497Y-78503388D02*
X174327497Y-78503388D01*
X174327497Y-78503388D02*
X174427497Y-78533626D01*
X174427497Y-78533626D02*
X174494164Y-78594102D01*
X174494164Y-78594102D02*
X174527497Y-78654578D01*
X174527497Y-78654578D02*
X174560830Y-78775530D01*
X174560830Y-78775530D02*
X174560830Y-78866245D01*
X174560830Y-78866245D02*
X174527497Y-78987197D01*
X174527497Y-78987197D02*
X174494164Y-79047673D01*
X174494164Y-79047673D02*
X174427497Y-79108150D01*
X174427497Y-79108150D02*
X174327497Y-79138388D01*
X174327497Y-79138388D02*
X174260830Y-79138388D01*
X174260830Y-79138388D02*
X174160830Y-79108150D01*
X174160830Y-79108150D02*
X174127497Y-79077911D01*
X174127497Y-79077911D02*
X174127497Y-78866245D01*
X174127497Y-78866245D02*
X174260830Y-78866245D01*
X173827497Y-79138388D02*
X173827497Y-78503388D01*
X173827497Y-78503388D02*
X173427497Y-79138388D01*
X173427497Y-79138388D02*
X173427497Y-78503388D01*
X173094164Y-79138388D02*
X173094164Y-78503388D01*
X173094164Y-78503388D02*
X172927497Y-78503388D01*
X172927497Y-78503388D02*
X172827497Y-78533626D01*
X172827497Y-78533626D02*
X172760831Y-78594102D01*
X172760831Y-78594102D02*
X172727497Y-78654578D01*
X172727497Y-78654578D02*
X172694164Y-78775530D01*
X172694164Y-78775530D02*
X172694164Y-78866245D01*
X172694164Y-78866245D02*
X172727497Y-78987197D01*
X172727497Y-78987197D02*
X172760831Y-79047673D01*
X172760831Y-79047673D02*
X172827497Y-79108150D01*
X172827497Y-79108150D02*
X172927497Y-79138388D01*
X172927497Y-79138388D02*
X173094164Y-79138388D01*
X179243364Y-85031188D02*
X178810030Y-85031188D01*
X178810030Y-85031188D02*
X179043364Y-85273092D01*
X179043364Y-85273092D02*
X178943364Y-85273092D01*
X178943364Y-85273092D02*
X178876697Y-85303330D01*
X178876697Y-85303330D02*
X178843364Y-85333569D01*
X178843364Y-85333569D02*
X178810030Y-85394045D01*
X178810030Y-85394045D02*
X178810030Y-85545235D01*
X178810030Y-85545235D02*
X178843364Y-85605711D01*
X178843364Y-85605711D02*
X178876697Y-85635950D01*
X178876697Y-85635950D02*
X178943364Y-85666188D01*
X178943364Y-85666188D02*
X179143364Y-85666188D01*
X179143364Y-85666188D02*
X179210030Y-85635950D01*
X179210030Y-85635950D02*
X179243364Y-85605711D01*
X178610030Y-85031188D02*
X178376697Y-85666188D01*
X178376697Y-85666188D02*
X178143363Y-85031188D01*
X177976697Y-85031188D02*
X177543363Y-85031188D01*
X177543363Y-85031188D02*
X177776697Y-85273092D01*
X177776697Y-85273092D02*
X177676697Y-85273092D01*
X177676697Y-85273092D02*
X177610030Y-85303330D01*
X177610030Y-85303330D02*
X177576697Y-85333569D01*
X177576697Y-85333569D02*
X177543363Y-85394045D01*
X177543363Y-85394045D02*
X177543363Y-85545235D01*
X177543363Y-85545235D02*
X177576697Y-85605711D01*
X177576697Y-85605711D02*
X177610030Y-85635950D01*
X177610030Y-85635950D02*
X177676697Y-85666188D01*
X177676697Y-85666188D02*
X177876697Y-85666188D01*
X177876697Y-85666188D02*
X177943363Y-85635950D01*
X177943363Y-85635950D02*
X177976697Y-85605711D01*
X176743363Y-85635950D02*
X176643363Y-85666188D01*
X176643363Y-85666188D02*
X176476697Y-85666188D01*
X176476697Y-85666188D02*
X176410030Y-85635950D01*
X176410030Y-85635950D02*
X176376697Y-85605711D01*
X176376697Y-85605711D02*
X176343363Y-85545235D01*
X176343363Y-85545235D02*
X176343363Y-85484759D01*
X176343363Y-85484759D02*
X176376697Y-85424283D01*
X176376697Y-85424283D02*
X176410030Y-85394045D01*
X176410030Y-85394045D02*
X176476697Y-85363807D01*
X176476697Y-85363807D02*
X176610030Y-85333569D01*
X176610030Y-85333569D02*
X176676697Y-85303330D01*
X176676697Y-85303330D02*
X176710030Y-85273092D01*
X176710030Y-85273092D02*
X176743363Y-85212616D01*
X176743363Y-85212616D02*
X176743363Y-85152140D01*
X176743363Y-85152140D02*
X176710030Y-85091664D01*
X176710030Y-85091664D02*
X176676697Y-85061426D01*
X176676697Y-85061426D02*
X176610030Y-85031188D01*
X176610030Y-85031188D02*
X176443363Y-85031188D01*
X176443363Y-85031188D02*
X176343363Y-85061426D01*
X176043363Y-85666188D02*
X176043363Y-85031188D01*
X175343363Y-85061426D02*
X175410030Y-85031188D01*
X175410030Y-85031188D02*
X175510030Y-85031188D01*
X175510030Y-85031188D02*
X175610030Y-85061426D01*
X175610030Y-85061426D02*
X175676697Y-85121902D01*
X175676697Y-85121902D02*
X175710030Y-85182378D01*
X175710030Y-85182378D02*
X175743363Y-85303330D01*
X175743363Y-85303330D02*
X175743363Y-85394045D01*
X175743363Y-85394045D02*
X175710030Y-85514997D01*
X175710030Y-85514997D02*
X175676697Y-85575473D01*
X175676697Y-85575473D02*
X175610030Y-85635950D01*
X175610030Y-85635950D02*
X175510030Y-85666188D01*
X175510030Y-85666188D02*
X175443363Y-85666188D01*
X175443363Y-85666188D02*
X175343363Y-85635950D01*
X175343363Y-85635950D02*
X175310030Y-85605711D01*
X175310030Y-85605711D02*
X175310030Y-85394045D01*
X175310030Y-85394045D02*
X175443363Y-85394045D01*
X174110030Y-85061426D02*
X174176697Y-85031188D01*
X174176697Y-85031188D02*
X174276697Y-85031188D01*
X174276697Y-85031188D02*
X174376697Y-85061426D01*
X174376697Y-85061426D02*
X174443364Y-85121902D01*
X174443364Y-85121902D02*
X174476697Y-85182378D01*
X174476697Y-85182378D02*
X174510030Y-85303330D01*
X174510030Y-85303330D02*
X174510030Y-85394045D01*
X174510030Y-85394045D02*
X174476697Y-85514997D01*
X174476697Y-85514997D02*
X174443364Y-85575473D01*
X174443364Y-85575473D02*
X174376697Y-85635950D01*
X174376697Y-85635950D02*
X174276697Y-85666188D01*
X174276697Y-85666188D02*
X174210030Y-85666188D01*
X174210030Y-85666188D02*
X174110030Y-85635950D01*
X174110030Y-85635950D02*
X174076697Y-85605711D01*
X174076697Y-85605711D02*
X174076697Y-85394045D01*
X174076697Y-85394045D02*
X174210030Y-85394045D01*
X173776697Y-85666188D02*
X173776697Y-85031188D01*
X173776697Y-85031188D02*
X173376697Y-85666188D01*
X173376697Y-85666188D02*
X173376697Y-85031188D01*
X173043364Y-85666188D02*
X173043364Y-85031188D01*
X173043364Y-85031188D02*
X172876697Y-85031188D01*
X172876697Y-85031188D02*
X172776697Y-85061426D01*
X172776697Y-85061426D02*
X172710031Y-85121902D01*
X172710031Y-85121902D02*
X172676697Y-85182378D01*
X172676697Y-85182378D02*
X172643364Y-85303330D01*
X172643364Y-85303330D02*
X172643364Y-85394045D01*
X172643364Y-85394045D02*
X172676697Y-85514997D01*
X172676697Y-85514997D02*
X172710031Y-85575473D01*
X172710031Y-85575473D02*
X172776697Y-85635950D01*
X172776697Y-85635950D02*
X172876697Y-85666188D01*
X172876697Y-85666188D02*
X173043364Y-85666188D01*
X164998764Y-61874692D02*
X164898764Y-61905644D01*
X164898764Y-61905644D02*
X164865430Y-61936596D01*
X164865430Y-61936596D02*
X164832097Y-61998501D01*
X164832097Y-61998501D02*
X164832097Y-62091358D01*
X164832097Y-62091358D02*
X164865430Y-62153263D01*
X164865430Y-62153263D02*
X164898764Y-62184216D01*
X164898764Y-62184216D02*
X164965430Y-62215168D01*
X164965430Y-62215168D02*
X165232097Y-62215168D01*
X165232097Y-62215168D02*
X165232097Y-61565168D01*
X165232097Y-61565168D02*
X164998764Y-61565168D01*
X164998764Y-61565168D02*
X164932097Y-61596120D01*
X164932097Y-61596120D02*
X164898764Y-61627073D01*
X164898764Y-61627073D02*
X164865430Y-61688977D01*
X164865430Y-61688977D02*
X164865430Y-61750882D01*
X164865430Y-61750882D02*
X164898764Y-61812787D01*
X164898764Y-61812787D02*
X164932097Y-61843739D01*
X164932097Y-61843739D02*
X164998764Y-61874692D01*
X164998764Y-61874692D02*
X165232097Y-61874692D01*
X164165430Y-62215168D02*
X164565430Y-62215168D01*
X164365430Y-62215168D02*
X164365430Y-61565168D01*
X164365430Y-61565168D02*
X164432097Y-61658025D01*
X164432097Y-61658025D02*
X164498764Y-61719930D01*
X164498764Y-61719930D02*
X164565430Y-61750882D01*
X164998764Y-63967620D02*
X164898764Y-63998572D01*
X164898764Y-63998572D02*
X164865430Y-64029524D01*
X164865430Y-64029524D02*
X164832097Y-64091429D01*
X164832097Y-64091429D02*
X164832097Y-64184286D01*
X164832097Y-64184286D02*
X164865430Y-64246191D01*
X164865430Y-64246191D02*
X164898764Y-64277144D01*
X164898764Y-64277144D02*
X164965430Y-64308096D01*
X164965430Y-64308096D02*
X165232097Y-64308096D01*
X165232097Y-64308096D02*
X165232097Y-63658096D01*
X165232097Y-63658096D02*
X164998764Y-63658096D01*
X164998764Y-63658096D02*
X164932097Y-63689048D01*
X164932097Y-63689048D02*
X164898764Y-63720001D01*
X164898764Y-63720001D02*
X164865430Y-63781905D01*
X164865430Y-63781905D02*
X164865430Y-63843810D01*
X164865430Y-63843810D02*
X164898764Y-63905715D01*
X164898764Y-63905715D02*
X164932097Y-63936667D01*
X164932097Y-63936667D02*
X164998764Y-63967620D01*
X164998764Y-63967620D02*
X165232097Y-63967620D01*
X164565430Y-63720001D02*
X164532097Y-63689048D01*
X164532097Y-63689048D02*
X164465430Y-63658096D01*
X164465430Y-63658096D02*
X164298764Y-63658096D01*
X164298764Y-63658096D02*
X164232097Y-63689048D01*
X164232097Y-63689048D02*
X164198764Y-63720001D01*
X164198764Y-63720001D02*
X164165430Y-63781905D01*
X164165430Y-63781905D02*
X164165430Y-63843810D01*
X164165430Y-63843810D02*
X164198764Y-63936667D01*
X164198764Y-63936667D02*
X164598764Y-64308096D01*
X164598764Y-64308096D02*
X164165430Y-64308096D01*
X165265430Y-66215310D02*
X164932097Y-66215310D01*
X165332097Y-66401024D02*
X165098764Y-65751024D01*
X165098764Y-65751024D02*
X164865430Y-66401024D01*
X164665430Y-65812929D02*
X164632097Y-65781976D01*
X164632097Y-65781976D02*
X164565430Y-65751024D01*
X164565430Y-65751024D02*
X164398764Y-65751024D01*
X164398764Y-65751024D02*
X164332097Y-65781976D01*
X164332097Y-65781976D02*
X164298764Y-65812929D01*
X164298764Y-65812929D02*
X164265430Y-65874833D01*
X164265430Y-65874833D02*
X164265430Y-65936738D01*
X164265430Y-65936738D02*
X164298764Y-66029595D01*
X164298764Y-66029595D02*
X164698764Y-66401024D01*
X164698764Y-66401024D02*
X164265430Y-66401024D01*
X165265430Y-68308238D02*
X164932097Y-68308238D01*
X165332097Y-68493952D02*
X165098764Y-67843952D01*
X165098764Y-67843952D02*
X164865430Y-68493952D01*
X164265430Y-68493952D02*
X164665430Y-68493952D01*
X164465430Y-68493952D02*
X164465430Y-67843952D01*
X164465430Y-67843952D02*
X164532097Y-67936809D01*
X164532097Y-67936809D02*
X164598764Y-67998714D01*
X164598764Y-67998714D02*
X164665430Y-68029666D01*
X150977964Y-61849292D02*
X150877964Y-61880244D01*
X150877964Y-61880244D02*
X150844630Y-61911196D01*
X150844630Y-61911196D02*
X150811297Y-61973101D01*
X150811297Y-61973101D02*
X150811297Y-62065958D01*
X150811297Y-62065958D02*
X150844630Y-62127863D01*
X150844630Y-62127863D02*
X150877964Y-62158816D01*
X150877964Y-62158816D02*
X150944630Y-62189768D01*
X150944630Y-62189768D02*
X151211297Y-62189768D01*
X151211297Y-62189768D02*
X151211297Y-61539768D01*
X151211297Y-61539768D02*
X150977964Y-61539768D01*
X150977964Y-61539768D02*
X150911297Y-61570720D01*
X150911297Y-61570720D02*
X150877964Y-61601673D01*
X150877964Y-61601673D02*
X150844630Y-61663577D01*
X150844630Y-61663577D02*
X150844630Y-61725482D01*
X150844630Y-61725482D02*
X150877964Y-61787387D01*
X150877964Y-61787387D02*
X150911297Y-61818339D01*
X150911297Y-61818339D02*
X150977964Y-61849292D01*
X150977964Y-61849292D02*
X151211297Y-61849292D01*
X150144630Y-62189768D02*
X150544630Y-62189768D01*
X150344630Y-62189768D02*
X150344630Y-61539768D01*
X150344630Y-61539768D02*
X150411297Y-61632625D01*
X150411297Y-61632625D02*
X150477964Y-61694530D01*
X150477964Y-61694530D02*
X150544630Y-61725482D01*
X150977964Y-63942220D02*
X150877964Y-63973172D01*
X150877964Y-63973172D02*
X150844630Y-64004124D01*
X150844630Y-64004124D02*
X150811297Y-64066029D01*
X150811297Y-64066029D02*
X150811297Y-64158886D01*
X150811297Y-64158886D02*
X150844630Y-64220791D01*
X150844630Y-64220791D02*
X150877964Y-64251744D01*
X150877964Y-64251744D02*
X150944630Y-64282696D01*
X150944630Y-64282696D02*
X151211297Y-64282696D01*
X151211297Y-64282696D02*
X151211297Y-63632696D01*
X151211297Y-63632696D02*
X150977964Y-63632696D01*
X150977964Y-63632696D02*
X150911297Y-63663648D01*
X150911297Y-63663648D02*
X150877964Y-63694601D01*
X150877964Y-63694601D02*
X150844630Y-63756505D01*
X150844630Y-63756505D02*
X150844630Y-63818410D01*
X150844630Y-63818410D02*
X150877964Y-63880315D01*
X150877964Y-63880315D02*
X150911297Y-63911267D01*
X150911297Y-63911267D02*
X150977964Y-63942220D01*
X150977964Y-63942220D02*
X151211297Y-63942220D01*
X150544630Y-63694601D02*
X150511297Y-63663648D01*
X150511297Y-63663648D02*
X150444630Y-63632696D01*
X150444630Y-63632696D02*
X150277964Y-63632696D01*
X150277964Y-63632696D02*
X150211297Y-63663648D01*
X150211297Y-63663648D02*
X150177964Y-63694601D01*
X150177964Y-63694601D02*
X150144630Y-63756505D01*
X150144630Y-63756505D02*
X150144630Y-63818410D01*
X150144630Y-63818410D02*
X150177964Y-63911267D01*
X150177964Y-63911267D02*
X150577964Y-64282696D01*
X150577964Y-64282696D02*
X150144630Y-64282696D01*
X151244630Y-66189910D02*
X150911297Y-66189910D01*
X151311297Y-66375624D02*
X151077964Y-65725624D01*
X151077964Y-65725624D02*
X150844630Y-66375624D01*
X150644630Y-65787529D02*
X150611297Y-65756576D01*
X150611297Y-65756576D02*
X150544630Y-65725624D01*
X150544630Y-65725624D02*
X150377964Y-65725624D01*
X150377964Y-65725624D02*
X150311297Y-65756576D01*
X150311297Y-65756576D02*
X150277964Y-65787529D01*
X150277964Y-65787529D02*
X150244630Y-65849433D01*
X150244630Y-65849433D02*
X150244630Y-65911338D01*
X150244630Y-65911338D02*
X150277964Y-66004195D01*
X150277964Y-66004195D02*
X150677964Y-66375624D01*
X150677964Y-66375624D02*
X150244630Y-66375624D01*
X151244630Y-68282838D02*
X150911297Y-68282838D01*
X151311297Y-68468552D02*
X151077964Y-67818552D01*
X151077964Y-67818552D02*
X150844630Y-68468552D01*
X150244630Y-68468552D02*
X150644630Y-68468552D01*
X150444630Y-68468552D02*
X150444630Y-67818552D01*
X150444630Y-67818552D02*
X150511297Y-67911409D01*
X150511297Y-67911409D02*
X150577964Y-67973314D01*
X150577964Y-67973314D02*
X150644630Y-68004266D01*
X143992964Y-61900092D02*
X143892964Y-61931044D01*
X143892964Y-61931044D02*
X143859630Y-61961996D01*
X143859630Y-61961996D02*
X143826297Y-62023901D01*
X143826297Y-62023901D02*
X143826297Y-62116758D01*
X143826297Y-62116758D02*
X143859630Y-62178663D01*
X143859630Y-62178663D02*
X143892964Y-62209616D01*
X143892964Y-62209616D02*
X143959630Y-62240568D01*
X143959630Y-62240568D02*
X144226297Y-62240568D01*
X144226297Y-62240568D02*
X144226297Y-61590568D01*
X144226297Y-61590568D02*
X143992964Y-61590568D01*
X143992964Y-61590568D02*
X143926297Y-61621520D01*
X143926297Y-61621520D02*
X143892964Y-61652473D01*
X143892964Y-61652473D02*
X143859630Y-61714377D01*
X143859630Y-61714377D02*
X143859630Y-61776282D01*
X143859630Y-61776282D02*
X143892964Y-61838187D01*
X143892964Y-61838187D02*
X143926297Y-61869139D01*
X143926297Y-61869139D02*
X143992964Y-61900092D01*
X143992964Y-61900092D02*
X144226297Y-61900092D01*
X143159630Y-62240568D02*
X143559630Y-62240568D01*
X143359630Y-62240568D02*
X143359630Y-61590568D01*
X143359630Y-61590568D02*
X143426297Y-61683425D01*
X143426297Y-61683425D02*
X143492964Y-61745330D01*
X143492964Y-61745330D02*
X143559630Y-61776282D01*
X143992964Y-63993020D02*
X143892964Y-64023972D01*
X143892964Y-64023972D02*
X143859630Y-64054924D01*
X143859630Y-64054924D02*
X143826297Y-64116829D01*
X143826297Y-64116829D02*
X143826297Y-64209686D01*
X143826297Y-64209686D02*
X143859630Y-64271591D01*
X143859630Y-64271591D02*
X143892964Y-64302544D01*
X143892964Y-64302544D02*
X143959630Y-64333496D01*
X143959630Y-64333496D02*
X144226297Y-64333496D01*
X144226297Y-64333496D02*
X144226297Y-63683496D01*
X144226297Y-63683496D02*
X143992964Y-63683496D01*
X143992964Y-63683496D02*
X143926297Y-63714448D01*
X143926297Y-63714448D02*
X143892964Y-63745401D01*
X143892964Y-63745401D02*
X143859630Y-63807305D01*
X143859630Y-63807305D02*
X143859630Y-63869210D01*
X143859630Y-63869210D02*
X143892964Y-63931115D01*
X143892964Y-63931115D02*
X143926297Y-63962067D01*
X143926297Y-63962067D02*
X143992964Y-63993020D01*
X143992964Y-63993020D02*
X144226297Y-63993020D01*
X143559630Y-63745401D02*
X143526297Y-63714448D01*
X143526297Y-63714448D02*
X143459630Y-63683496D01*
X143459630Y-63683496D02*
X143292964Y-63683496D01*
X143292964Y-63683496D02*
X143226297Y-63714448D01*
X143226297Y-63714448D02*
X143192964Y-63745401D01*
X143192964Y-63745401D02*
X143159630Y-63807305D01*
X143159630Y-63807305D02*
X143159630Y-63869210D01*
X143159630Y-63869210D02*
X143192964Y-63962067D01*
X143192964Y-63962067D02*
X143592964Y-64333496D01*
X143592964Y-64333496D02*
X143159630Y-64333496D01*
X144259630Y-66240710D02*
X143926297Y-66240710D01*
X144326297Y-66426424D02*
X144092964Y-65776424D01*
X144092964Y-65776424D02*
X143859630Y-66426424D01*
X143659630Y-65838329D02*
X143626297Y-65807376D01*
X143626297Y-65807376D02*
X143559630Y-65776424D01*
X143559630Y-65776424D02*
X143392964Y-65776424D01*
X143392964Y-65776424D02*
X143326297Y-65807376D01*
X143326297Y-65807376D02*
X143292964Y-65838329D01*
X143292964Y-65838329D02*
X143259630Y-65900233D01*
X143259630Y-65900233D02*
X143259630Y-65962138D01*
X143259630Y-65962138D02*
X143292964Y-66054995D01*
X143292964Y-66054995D02*
X143692964Y-66426424D01*
X143692964Y-66426424D02*
X143259630Y-66426424D01*
X144259630Y-68333638D02*
X143926297Y-68333638D01*
X144326297Y-68519352D02*
X144092964Y-67869352D01*
X144092964Y-67869352D02*
X143859630Y-68519352D01*
X143259630Y-68519352D02*
X143659630Y-68519352D01*
X143459630Y-68519352D02*
X143459630Y-67869352D01*
X143459630Y-67869352D02*
X143526297Y-67962209D01*
X143526297Y-67962209D02*
X143592964Y-68024114D01*
X143592964Y-68024114D02*
X143659630Y-68055066D01*
X125877200Y-101307733D02*
X126110533Y-100974400D01*
X126277200Y-101307733D02*
X126277200Y-100607733D01*
X126277200Y-100607733D02*
X126010533Y-100607733D01*
X126010533Y-100607733D02*
X125943867Y-100641066D01*
X125943867Y-100641066D02*
X125910533Y-100674400D01*
X125910533Y-100674400D02*
X125877200Y-100741066D01*
X125877200Y-100741066D02*
X125877200Y-100841066D01*
X125877200Y-100841066D02*
X125910533Y-100907733D01*
X125910533Y-100907733D02*
X125943867Y-100941066D01*
X125943867Y-100941066D02*
X126010533Y-100974400D01*
X126010533Y-100974400D02*
X126277200Y-100974400D01*
X125243867Y-100607733D02*
X125577200Y-100607733D01*
X125577200Y-100607733D02*
X125610533Y-100941066D01*
X125610533Y-100941066D02*
X125577200Y-100907733D01*
X125577200Y-100907733D02*
X125510533Y-100874400D01*
X125510533Y-100874400D02*
X125343867Y-100874400D01*
X125343867Y-100874400D02*
X125277200Y-100907733D01*
X125277200Y-100907733D02*
X125243867Y-100941066D01*
X125243867Y-100941066D02*
X125210533Y-101007733D01*
X125210533Y-101007733D02*
X125210533Y-101174400D01*
X125210533Y-101174400D02*
X125243867Y-101241066D01*
X125243867Y-101241066D02*
X125277200Y-101274400D01*
X125277200Y-101274400D02*
X125343867Y-101307733D01*
X125343867Y-101307733D02*
X125510533Y-101307733D01*
X125510533Y-101307733D02*
X125577200Y-101274400D01*
X125577200Y-101274400D02*
X125610533Y-101241066D01*
X124610533Y-100607733D02*
X124743866Y-100607733D01*
X124743866Y-100607733D02*
X124810533Y-100641066D01*
X124810533Y-100641066D02*
X124843866Y-100674400D01*
X124843866Y-100674400D02*
X124910533Y-100774400D01*
X124910533Y-100774400D02*
X124943866Y-100907733D01*
X124943866Y-100907733D02*
X124943866Y-101174400D01*
X124943866Y-101174400D02*
X124910533Y-101241066D01*
X124910533Y-101241066D02*
X124877200Y-101274400D01*
X124877200Y-101274400D02*
X124810533Y-101307733D01*
X124810533Y-101307733D02*
X124677200Y-101307733D01*
X124677200Y-101307733D02*
X124610533Y-101274400D01*
X124610533Y-101274400D02*
X124577200Y-101241066D01*
X124577200Y-101241066D02*
X124543866Y-101174400D01*
X124543866Y-101174400D02*
X124543866Y-101007733D01*
X124543866Y-101007733D02*
X124577200Y-100941066D01*
X124577200Y-100941066D02*
X124610533Y-100907733D01*
X124610533Y-100907733D02*
X124677200Y-100874400D01*
X124677200Y-100874400D02*
X124810533Y-100874400D01*
X124810533Y-100874400D02*
X124877200Y-100907733D01*
X124877200Y-100907733D02*
X124910533Y-100941066D01*
X124910533Y-100941066D02*
X124943866Y-101007733D01*
X165780133Y-100960333D02*
X165380133Y-100960333D01*
X165580133Y-101660333D02*
X165580133Y-100960333D01*
X165146800Y-101660333D02*
X165146800Y-100960333D01*
X165146800Y-100960333D02*
X164880133Y-100960333D01*
X164880133Y-100960333D02*
X164813467Y-100993666D01*
X164813467Y-100993666D02*
X164780133Y-101027000D01*
X164780133Y-101027000D02*
X164746800Y-101093666D01*
X164746800Y-101093666D02*
X164746800Y-101193666D01*
X164746800Y-101193666D02*
X164780133Y-101260333D01*
X164780133Y-101260333D02*
X164813467Y-101293666D01*
X164813467Y-101293666D02*
X164880133Y-101327000D01*
X164880133Y-101327000D02*
X165146800Y-101327000D01*
X164513467Y-100960333D02*
X164080133Y-100960333D01*
X164080133Y-100960333D02*
X164313467Y-101227000D01*
X164313467Y-101227000D02*
X164213467Y-101227000D01*
X164213467Y-101227000D02*
X164146800Y-101260333D01*
X164146800Y-101260333D02*
X164113467Y-101293666D01*
X164113467Y-101293666D02*
X164080133Y-101360333D01*
X164080133Y-101360333D02*
X164080133Y-101527000D01*
X164080133Y-101527000D02*
X164113467Y-101593666D01*
X164113467Y-101593666D02*
X164146800Y-101627000D01*
X164146800Y-101627000D02*
X164213467Y-101660333D01*
X164213467Y-101660333D02*
X164413467Y-101660333D01*
X164413467Y-101660333D02*
X164480133Y-101627000D01*
X164480133Y-101627000D02*
X164513467Y-101593666D01*
X125877200Y-99174133D02*
X126110533Y-98840800D01*
X126277200Y-99174133D02*
X126277200Y-98474133D01*
X126277200Y-98474133D02*
X126010533Y-98474133D01*
X126010533Y-98474133D02*
X125943867Y-98507466D01*
X125943867Y-98507466D02*
X125910533Y-98540800D01*
X125910533Y-98540800D02*
X125877200Y-98607466D01*
X125877200Y-98607466D02*
X125877200Y-98707466D01*
X125877200Y-98707466D02*
X125910533Y-98774133D01*
X125910533Y-98774133D02*
X125943867Y-98807466D01*
X125943867Y-98807466D02*
X126010533Y-98840800D01*
X126010533Y-98840800D02*
X126277200Y-98840800D01*
X125243867Y-98474133D02*
X125577200Y-98474133D01*
X125577200Y-98474133D02*
X125610533Y-98807466D01*
X125610533Y-98807466D02*
X125577200Y-98774133D01*
X125577200Y-98774133D02*
X125510533Y-98740800D01*
X125510533Y-98740800D02*
X125343867Y-98740800D01*
X125343867Y-98740800D02*
X125277200Y-98774133D01*
X125277200Y-98774133D02*
X125243867Y-98807466D01*
X125243867Y-98807466D02*
X125210533Y-98874133D01*
X125210533Y-98874133D02*
X125210533Y-99040800D01*
X125210533Y-99040800D02*
X125243867Y-99107466D01*
X125243867Y-99107466D02*
X125277200Y-99140800D01*
X125277200Y-99140800D02*
X125343867Y-99174133D01*
X125343867Y-99174133D02*
X125510533Y-99174133D01*
X125510533Y-99174133D02*
X125577200Y-99140800D01*
X125577200Y-99140800D02*
X125610533Y-99107466D01*
X124810533Y-98774133D02*
X124877200Y-98740800D01*
X124877200Y-98740800D02*
X124910533Y-98707466D01*
X124910533Y-98707466D02*
X124943866Y-98640800D01*
X124943866Y-98640800D02*
X124943866Y-98607466D01*
X124943866Y-98607466D02*
X124910533Y-98540800D01*
X124910533Y-98540800D02*
X124877200Y-98507466D01*
X124877200Y-98507466D02*
X124810533Y-98474133D01*
X124810533Y-98474133D02*
X124677200Y-98474133D01*
X124677200Y-98474133D02*
X124610533Y-98507466D01*
X124610533Y-98507466D02*
X124577200Y-98540800D01*
X124577200Y-98540800D02*
X124543866Y-98607466D01*
X124543866Y-98607466D02*
X124543866Y-98640800D01*
X124543866Y-98640800D02*
X124577200Y-98707466D01*
X124577200Y-98707466D02*
X124610533Y-98740800D01*
X124610533Y-98740800D02*
X124677200Y-98774133D01*
X124677200Y-98774133D02*
X124810533Y-98774133D01*
X124810533Y-98774133D02*
X124877200Y-98807466D01*
X124877200Y-98807466D02*
X124910533Y-98840800D01*
X124910533Y-98840800D02*
X124943866Y-98907466D01*
X124943866Y-98907466D02*
X124943866Y-99040800D01*
X124943866Y-99040800D02*
X124910533Y-99107466D01*
X124910533Y-99107466D02*
X124877200Y-99140800D01*
X124877200Y-99140800D02*
X124810533Y-99174133D01*
X124810533Y-99174133D02*
X124677200Y-99174133D01*
X124677200Y-99174133D02*
X124610533Y-99140800D01*
X124610533Y-99140800D02*
X124577200Y-99107466D01*
X124577200Y-99107466D02*
X124543866Y-99040800D01*
X124543866Y-99040800D02*
X124543866Y-98907466D01*
X124543866Y-98907466D02*
X124577200Y-98840800D01*
X124577200Y-98840800D02*
X124610533Y-98807466D01*
X124610533Y-98807466D02*
X124677200Y-98774133D01*
X125900600Y-102374533D02*
X126133933Y-102041200D01*
X126300600Y-102374533D02*
X126300600Y-101674533D01*
X126300600Y-101674533D02*
X126033933Y-101674533D01*
X126033933Y-101674533D02*
X125967267Y-101707866D01*
X125967267Y-101707866D02*
X125933933Y-101741200D01*
X125933933Y-101741200D02*
X125900600Y-101807866D01*
X125900600Y-101807866D02*
X125900600Y-101907866D01*
X125900600Y-101907866D02*
X125933933Y-101974533D01*
X125933933Y-101974533D02*
X125967267Y-102007866D01*
X125967267Y-102007866D02*
X126033933Y-102041200D01*
X126033933Y-102041200D02*
X126300600Y-102041200D01*
X125267267Y-101674533D02*
X125600600Y-101674533D01*
X125600600Y-101674533D02*
X125633933Y-102007866D01*
X125633933Y-102007866D02*
X125600600Y-101974533D01*
X125600600Y-101974533D02*
X125533933Y-101941200D01*
X125533933Y-101941200D02*
X125367267Y-101941200D01*
X125367267Y-101941200D02*
X125300600Y-101974533D01*
X125300600Y-101974533D02*
X125267267Y-102007866D01*
X125267267Y-102007866D02*
X125233933Y-102074533D01*
X125233933Y-102074533D02*
X125233933Y-102241200D01*
X125233933Y-102241200D02*
X125267267Y-102307866D01*
X125267267Y-102307866D02*
X125300600Y-102341200D01*
X125300600Y-102341200D02*
X125367267Y-102374533D01*
X125367267Y-102374533D02*
X125533933Y-102374533D01*
X125533933Y-102374533D02*
X125600600Y-102341200D01*
X125600600Y-102341200D02*
X125633933Y-102307866D01*
X124600600Y-101674533D02*
X124933933Y-101674533D01*
X124933933Y-101674533D02*
X124967266Y-102007866D01*
X124967266Y-102007866D02*
X124933933Y-101974533D01*
X124933933Y-101974533D02*
X124867266Y-101941200D01*
X124867266Y-101941200D02*
X124700600Y-101941200D01*
X124700600Y-101941200D02*
X124633933Y-101974533D01*
X124633933Y-101974533D02*
X124600600Y-102007866D01*
X124600600Y-102007866D02*
X124567266Y-102074533D01*
X124567266Y-102074533D02*
X124567266Y-102241200D01*
X124567266Y-102241200D02*
X124600600Y-102307866D01*
X124600600Y-102307866D02*
X124633933Y-102341200D01*
X124633933Y-102341200D02*
X124700600Y-102374533D01*
X124700600Y-102374533D02*
X124867266Y-102374533D01*
X124867266Y-102374533D02*
X124933933Y-102341200D01*
X124933933Y-102341200D02*
X124967266Y-102307866D01*
X140310725Y-74351019D02*
X140289592Y-74454288D01*
X140289592Y-74454288D02*
X140206259Y-74598626D01*
X140206259Y-74598626D02*
X140144058Y-74639694D01*
X140144058Y-74639694D02*
X140098524Y-74651895D01*
X140098524Y-74651895D02*
X140024122Y-74647429D01*
X140024122Y-74647429D02*
X139966387Y-74614096D01*
X139966387Y-74614096D02*
X139925319Y-74551895D01*
X139925319Y-74551895D02*
X139913118Y-74506361D01*
X139913118Y-74506361D02*
X139917584Y-74431959D01*
X139917584Y-74431959D02*
X139955383Y-74299822D01*
X139955383Y-74299822D02*
X139959849Y-74225421D01*
X139959849Y-74225421D02*
X139947648Y-74179887D01*
X139947648Y-74179887D02*
X139906579Y-74117686D01*
X139906579Y-74117686D02*
X139848844Y-74084352D01*
X139848844Y-74084352D02*
X139774443Y-74079887D01*
X139774443Y-74079887D02*
X139728908Y-74092087D01*
X139728908Y-74092087D02*
X139666708Y-74133156D01*
X139666708Y-74133156D02*
X139583374Y-74277493D01*
X139583374Y-74277493D02*
X139562242Y-74380762D01*
X139457776Y-74628370D02*
X139412242Y-74640570D01*
X139412242Y-74640570D02*
X139350041Y-74681639D01*
X139350041Y-74681639D02*
X139266707Y-74825976D01*
X139266707Y-74825976D02*
X139262242Y-74900378D01*
X139262242Y-74900378D02*
X139274442Y-74945912D01*
X139274442Y-74945912D02*
X139315511Y-75008113D01*
X139315511Y-75008113D02*
X139373246Y-75041446D01*
X139373246Y-75041446D02*
X139476515Y-75062579D01*
X139476515Y-75062579D02*
X140022925Y-74916169D01*
X140022925Y-74916169D02*
X139806259Y-75291446D01*
X153842133Y-79624333D02*
X153442133Y-79624333D01*
X153642133Y-80324333D02*
X153642133Y-79624333D01*
X153208800Y-80324333D02*
X153208800Y-79624333D01*
X153208800Y-79624333D02*
X152942133Y-79624333D01*
X152942133Y-79624333D02*
X152875467Y-79657666D01*
X152875467Y-79657666D02*
X152842133Y-79691000D01*
X152842133Y-79691000D02*
X152808800Y-79757666D01*
X152808800Y-79757666D02*
X152808800Y-79857666D01*
X152808800Y-79857666D02*
X152842133Y-79924333D01*
X152842133Y-79924333D02*
X152875467Y-79957666D01*
X152875467Y-79957666D02*
X152942133Y-79991000D01*
X152942133Y-79991000D02*
X153208800Y-79991000D01*
X152408800Y-79924333D02*
X152475467Y-79891000D01*
X152475467Y-79891000D02*
X152508800Y-79857666D01*
X152508800Y-79857666D02*
X152542133Y-79791000D01*
X152542133Y-79791000D02*
X152542133Y-79757666D01*
X152542133Y-79757666D02*
X152508800Y-79691000D01*
X152508800Y-79691000D02*
X152475467Y-79657666D01*
X152475467Y-79657666D02*
X152408800Y-79624333D01*
X152408800Y-79624333D02*
X152275467Y-79624333D01*
X152275467Y-79624333D02*
X152208800Y-79657666D01*
X152208800Y-79657666D02*
X152175467Y-79691000D01*
X152175467Y-79691000D02*
X152142133Y-79757666D01*
X152142133Y-79757666D02*
X152142133Y-79791000D01*
X152142133Y-79791000D02*
X152175467Y-79857666D01*
X152175467Y-79857666D02*
X152208800Y-79891000D01*
X152208800Y-79891000D02*
X152275467Y-79924333D01*
X152275467Y-79924333D02*
X152408800Y-79924333D01*
X152408800Y-79924333D02*
X152475467Y-79957666D01*
X152475467Y-79957666D02*
X152508800Y-79991000D01*
X152508800Y-79991000D02*
X152542133Y-80057666D01*
X152542133Y-80057666D02*
X152542133Y-80191000D01*
X152542133Y-80191000D02*
X152508800Y-80257666D01*
X152508800Y-80257666D02*
X152475467Y-80291000D01*
X152475467Y-80291000D02*
X152408800Y-80324333D01*
X152408800Y-80324333D02*
X152275467Y-80324333D01*
X152275467Y-80324333D02*
X152208800Y-80291000D01*
X152208800Y-80291000D02*
X152175467Y-80257666D01*
X152175467Y-80257666D02*
X152142133Y-80191000D01*
X152142133Y-80191000D02*
X152142133Y-80057666D01*
X152142133Y-80057666D02*
X152175467Y-79991000D01*
X152175467Y-79991000D02*
X152208800Y-79957666D01*
X152208800Y-79957666D02*
X152275467Y-79924333D01*
X125851800Y-100240933D02*
X126085133Y-99907600D01*
X126251800Y-100240933D02*
X126251800Y-99540933D01*
X126251800Y-99540933D02*
X125985133Y-99540933D01*
X125985133Y-99540933D02*
X125918467Y-99574266D01*
X125918467Y-99574266D02*
X125885133Y-99607600D01*
X125885133Y-99607600D02*
X125851800Y-99674266D01*
X125851800Y-99674266D02*
X125851800Y-99774266D01*
X125851800Y-99774266D02*
X125885133Y-99840933D01*
X125885133Y-99840933D02*
X125918467Y-99874266D01*
X125918467Y-99874266D02*
X125985133Y-99907600D01*
X125985133Y-99907600D02*
X126251800Y-99907600D01*
X125218467Y-99540933D02*
X125551800Y-99540933D01*
X125551800Y-99540933D02*
X125585133Y-99874266D01*
X125585133Y-99874266D02*
X125551800Y-99840933D01*
X125551800Y-99840933D02*
X125485133Y-99807600D01*
X125485133Y-99807600D02*
X125318467Y-99807600D01*
X125318467Y-99807600D02*
X125251800Y-99840933D01*
X125251800Y-99840933D02*
X125218467Y-99874266D01*
X125218467Y-99874266D02*
X125185133Y-99940933D01*
X125185133Y-99940933D02*
X125185133Y-100107600D01*
X125185133Y-100107600D02*
X125218467Y-100174266D01*
X125218467Y-100174266D02*
X125251800Y-100207600D01*
X125251800Y-100207600D02*
X125318467Y-100240933D01*
X125318467Y-100240933D02*
X125485133Y-100240933D01*
X125485133Y-100240933D02*
X125551800Y-100207600D01*
X125551800Y-100207600D02*
X125585133Y-100174266D01*
X124951800Y-99540933D02*
X124485133Y-99540933D01*
X124485133Y-99540933D02*
X124785133Y-100240933D01*
X122233466Y-103513533D02*
X122233466Y-102813533D01*
X122233466Y-102813533D02*
X122066799Y-102813533D01*
X122066799Y-102813533D02*
X121966799Y-102846866D01*
X121966799Y-102846866D02*
X121900133Y-102913533D01*
X121900133Y-102913533D02*
X121866799Y-102980200D01*
X121866799Y-102980200D02*
X121833466Y-103113533D01*
X121833466Y-103113533D02*
X121833466Y-103213533D01*
X121833466Y-103213533D02*
X121866799Y-103346866D01*
X121866799Y-103346866D02*
X121900133Y-103413533D01*
X121900133Y-103413533D02*
X121966799Y-103480200D01*
X121966799Y-103480200D02*
X122066799Y-103513533D01*
X122066799Y-103513533D02*
X122233466Y-103513533D01*
X121233466Y-102813533D02*
X121366799Y-102813533D01*
X121366799Y-102813533D02*
X121433466Y-102846866D01*
X121433466Y-102846866D02*
X121466799Y-102880200D01*
X121466799Y-102880200D02*
X121533466Y-102980200D01*
X121533466Y-102980200D02*
X121566799Y-103113533D01*
X121566799Y-103113533D02*
X121566799Y-103380200D01*
X121566799Y-103380200D02*
X121533466Y-103446866D01*
X121533466Y-103446866D02*
X121500133Y-103480200D01*
X121500133Y-103480200D02*
X121433466Y-103513533D01*
X121433466Y-103513533D02*
X121300133Y-103513533D01*
X121300133Y-103513533D02*
X121233466Y-103480200D01*
X121233466Y-103480200D02*
X121200133Y-103446866D01*
X121200133Y-103446866D02*
X121166799Y-103380200D01*
X121166799Y-103380200D02*
X121166799Y-103213533D01*
X121166799Y-103213533D02*
X121200133Y-103146866D01*
X121200133Y-103146866D02*
X121233466Y-103113533D01*
X121233466Y-103113533D02*
X121300133Y-103080200D01*
X121300133Y-103080200D02*
X121433466Y-103080200D01*
X121433466Y-103080200D02*
X121500133Y-103113533D01*
X121500133Y-103113533D02*
X121533466Y-103146866D01*
X121533466Y-103146866D02*
X121566799Y-103213533D01*
X162198733Y-79141733D02*
X161798733Y-79141733D01*
X161998733Y-79841733D02*
X161998733Y-79141733D01*
X161565400Y-79841733D02*
X161565400Y-79141733D01*
X161565400Y-79141733D02*
X161298733Y-79141733D01*
X161298733Y-79141733D02*
X161232067Y-79175066D01*
X161232067Y-79175066D02*
X161198733Y-79208400D01*
X161198733Y-79208400D02*
X161165400Y-79275066D01*
X161165400Y-79275066D02*
X161165400Y-79375066D01*
X161165400Y-79375066D02*
X161198733Y-79441733D01*
X161198733Y-79441733D02*
X161232067Y-79475066D01*
X161232067Y-79475066D02*
X161298733Y-79508400D01*
X161298733Y-79508400D02*
X161565400Y-79508400D01*
X160832067Y-79841733D02*
X160698733Y-79841733D01*
X160698733Y-79841733D02*
X160632067Y-79808400D01*
X160632067Y-79808400D02*
X160598733Y-79775066D01*
X160598733Y-79775066D02*
X160532067Y-79675066D01*
X160532067Y-79675066D02*
X160498733Y-79541733D01*
X160498733Y-79541733D02*
X160498733Y-79275066D01*
X160498733Y-79275066D02*
X160532067Y-79208400D01*
X160532067Y-79208400D02*
X160565400Y-79175066D01*
X160565400Y-79175066D02*
X160632067Y-79141733D01*
X160632067Y-79141733D02*
X160765400Y-79141733D01*
X160765400Y-79141733D02*
X160832067Y-79175066D01*
X160832067Y-79175066D02*
X160865400Y-79208400D01*
X160865400Y-79208400D02*
X160898733Y-79275066D01*
X160898733Y-79275066D02*
X160898733Y-79441733D01*
X160898733Y-79441733D02*
X160865400Y-79508400D01*
X160865400Y-79508400D02*
X160832067Y-79541733D01*
X160832067Y-79541733D02*
X160765400Y-79575066D01*
X160765400Y-79575066D02*
X160632067Y-79575066D01*
X160632067Y-79575066D02*
X160565400Y-79541733D01*
X160565400Y-79541733D02*
X160532067Y-79508400D01*
X160532067Y-79508400D02*
X160498733Y-79441733D01*
X141065933Y-98293333D02*
X140665933Y-98293333D01*
X140865933Y-98993333D02*
X140865933Y-98293333D01*
X140432600Y-98993333D02*
X140432600Y-98293333D01*
X140432600Y-98293333D02*
X140165933Y-98293333D01*
X140165933Y-98293333D02*
X140099267Y-98326666D01*
X140099267Y-98326666D02*
X140065933Y-98360000D01*
X140065933Y-98360000D02*
X140032600Y-98426666D01*
X140032600Y-98426666D02*
X140032600Y-98526666D01*
X140032600Y-98526666D02*
X140065933Y-98593333D01*
X140065933Y-98593333D02*
X140099267Y-98626666D01*
X140099267Y-98626666D02*
X140165933Y-98660000D01*
X140165933Y-98660000D02*
X140432600Y-98660000D01*
X139399267Y-98293333D02*
X139732600Y-98293333D01*
X139732600Y-98293333D02*
X139765933Y-98626666D01*
X139765933Y-98626666D02*
X139732600Y-98593333D01*
X139732600Y-98593333D02*
X139665933Y-98560000D01*
X139665933Y-98560000D02*
X139499267Y-98560000D01*
X139499267Y-98560000D02*
X139432600Y-98593333D01*
X139432600Y-98593333D02*
X139399267Y-98626666D01*
X139399267Y-98626666D02*
X139365933Y-98693333D01*
X139365933Y-98693333D02*
X139365933Y-98860000D01*
X139365933Y-98860000D02*
X139399267Y-98926666D01*
X139399267Y-98926666D02*
X139432600Y-98960000D01*
X139432600Y-98960000D02*
X139499267Y-98993333D01*
X139499267Y-98993333D02*
X139665933Y-98993333D01*
X139665933Y-98993333D02*
X139732600Y-98960000D01*
X139732600Y-98960000D02*
X139765933Y-98926666D01*
X133522133Y-90749533D02*
X133122133Y-90749533D01*
X133322133Y-91449533D02*
X133322133Y-90749533D01*
X132888800Y-91449533D02*
X132888800Y-90749533D01*
X132888800Y-90749533D02*
X132622133Y-90749533D01*
X132622133Y-90749533D02*
X132555467Y-90782866D01*
X132555467Y-90782866D02*
X132522133Y-90816200D01*
X132522133Y-90816200D02*
X132488800Y-90882866D01*
X132488800Y-90882866D02*
X132488800Y-90982866D01*
X132488800Y-90982866D02*
X132522133Y-91049533D01*
X132522133Y-91049533D02*
X132555467Y-91082866D01*
X132555467Y-91082866D02*
X132622133Y-91116200D01*
X132622133Y-91116200D02*
X132888800Y-91116200D01*
X131888800Y-90749533D02*
X132022133Y-90749533D01*
X132022133Y-90749533D02*
X132088800Y-90782866D01*
X132088800Y-90782866D02*
X132122133Y-90816200D01*
X132122133Y-90816200D02*
X132188800Y-90916200D01*
X132188800Y-90916200D02*
X132222133Y-91049533D01*
X132222133Y-91049533D02*
X132222133Y-91316200D01*
X132222133Y-91316200D02*
X132188800Y-91382866D01*
X132188800Y-91382866D02*
X132155467Y-91416200D01*
X132155467Y-91416200D02*
X132088800Y-91449533D01*
X132088800Y-91449533D02*
X131955467Y-91449533D01*
X131955467Y-91449533D02*
X131888800Y-91416200D01*
X131888800Y-91416200D02*
X131855467Y-91382866D01*
X131855467Y-91382866D02*
X131822133Y-91316200D01*
X131822133Y-91316200D02*
X131822133Y-91149533D01*
X131822133Y-91149533D02*
X131855467Y-91082866D01*
X131855467Y-91082866D02*
X131888800Y-91049533D01*
X131888800Y-91049533D02*
X131955467Y-91016200D01*
X131955467Y-91016200D02*
X132088800Y-91016200D01*
X132088800Y-91016200D02*
X132155467Y-91049533D01*
X132155467Y-91049533D02*
X132188800Y-91082866D01*
X132188800Y-91082866D02*
X132222133Y-91149533D01*
X122273266Y-99092733D02*
X122273266Y-98392733D01*
X122273266Y-98392733D02*
X122106599Y-98392733D01*
X122106599Y-98392733D02*
X122006599Y-98426066D01*
X122006599Y-98426066D02*
X121939933Y-98492733D01*
X121939933Y-98492733D02*
X121906599Y-98559400D01*
X121906599Y-98559400D02*
X121873266Y-98692733D01*
X121873266Y-98692733D02*
X121873266Y-98792733D01*
X121873266Y-98792733D02*
X121906599Y-98926066D01*
X121906599Y-98926066D02*
X121939933Y-98992733D01*
X121939933Y-98992733D02*
X122006599Y-99059400D01*
X122006599Y-99059400D02*
X122106599Y-99092733D01*
X122106599Y-99092733D02*
X122273266Y-99092733D01*
X121473266Y-98692733D02*
X121539933Y-98659400D01*
X121539933Y-98659400D02*
X121573266Y-98626066D01*
X121573266Y-98626066D02*
X121606599Y-98559400D01*
X121606599Y-98559400D02*
X121606599Y-98526066D01*
X121606599Y-98526066D02*
X121573266Y-98459400D01*
X121573266Y-98459400D02*
X121539933Y-98426066D01*
X121539933Y-98426066D02*
X121473266Y-98392733D01*
X121473266Y-98392733D02*
X121339933Y-98392733D01*
X121339933Y-98392733D02*
X121273266Y-98426066D01*
X121273266Y-98426066D02*
X121239933Y-98459400D01*
X121239933Y-98459400D02*
X121206599Y-98526066D01*
X121206599Y-98526066D02*
X121206599Y-98559400D01*
X121206599Y-98559400D02*
X121239933Y-98626066D01*
X121239933Y-98626066D02*
X121273266Y-98659400D01*
X121273266Y-98659400D02*
X121339933Y-98692733D01*
X121339933Y-98692733D02*
X121473266Y-98692733D01*
X121473266Y-98692733D02*
X121539933Y-98726066D01*
X121539933Y-98726066D02*
X121573266Y-98759400D01*
X121573266Y-98759400D02*
X121606599Y-98826066D01*
X121606599Y-98826066D02*
X121606599Y-98959400D01*
X121606599Y-98959400D02*
X121573266Y-99026066D01*
X121573266Y-99026066D02*
X121539933Y-99059400D01*
X121539933Y-99059400D02*
X121473266Y-99092733D01*
X121473266Y-99092733D02*
X121339933Y-99092733D01*
X121339933Y-99092733D02*
X121273266Y-99059400D01*
X121273266Y-99059400D02*
X121239933Y-99026066D01*
X121239933Y-99026066D02*
X121206599Y-98959400D01*
X121206599Y-98959400D02*
X121206599Y-98826066D01*
X121206599Y-98826066D02*
X121239933Y-98759400D01*
X121239933Y-98759400D02*
X121273266Y-98726066D01*
X121273266Y-98726066D02*
X121339933Y-98692733D01*
X126714933Y-108275533D02*
X126314933Y-108275533D01*
X126514933Y-108975533D02*
X126514933Y-108275533D01*
X126081600Y-108975533D02*
X126081600Y-108275533D01*
X126081600Y-108275533D02*
X125814933Y-108275533D01*
X125814933Y-108275533D02*
X125748267Y-108308866D01*
X125748267Y-108308866D02*
X125714933Y-108342200D01*
X125714933Y-108342200D02*
X125681600Y-108408866D01*
X125681600Y-108408866D02*
X125681600Y-108508866D01*
X125681600Y-108508866D02*
X125714933Y-108575533D01*
X125714933Y-108575533D02*
X125748267Y-108608866D01*
X125748267Y-108608866D02*
X125814933Y-108642200D01*
X125814933Y-108642200D02*
X126081600Y-108642200D01*
X125081600Y-108508866D02*
X125081600Y-108975533D01*
X125248267Y-108242200D02*
X125414933Y-108742200D01*
X125414933Y-108742200D02*
X124981600Y-108742200D01*
X131565567Y-69285620D02*
X130959350Y-68935620D01*
X130959350Y-68935620D02*
X130876016Y-69079958D01*
X130876016Y-69079958D02*
X130854884Y-69183227D01*
X130854884Y-69183227D02*
X130879285Y-69274295D01*
X130879285Y-69274295D02*
X130920354Y-69336496D01*
X130920354Y-69336496D02*
X131019157Y-69432030D01*
X131019157Y-69432030D02*
X131105760Y-69482030D01*
X131105760Y-69482030D02*
X131237896Y-69519829D01*
X131237896Y-69519829D02*
X131312298Y-69524295D01*
X131312298Y-69524295D02*
X131403367Y-69499893D01*
X131403367Y-69499893D02*
X131482234Y-69429958D01*
X131482234Y-69429958D02*
X131565567Y-69285620D01*
X130661422Y-69918312D02*
X131065567Y-70151645D01*
X130513815Y-69640641D02*
X131030161Y-69746304D01*
X131030161Y-69746304D02*
X130813495Y-70121581D01*
X159074533Y-102789133D02*
X158674533Y-102789133D01*
X158874533Y-103489133D02*
X158874533Y-102789133D01*
X158441200Y-103489133D02*
X158441200Y-102789133D01*
X158441200Y-102789133D02*
X158174533Y-102789133D01*
X158174533Y-102789133D02*
X158107867Y-102822466D01*
X158107867Y-102822466D02*
X158074533Y-102855800D01*
X158074533Y-102855800D02*
X158041200Y-102922466D01*
X158041200Y-102922466D02*
X158041200Y-103022466D01*
X158041200Y-103022466D02*
X158074533Y-103089133D01*
X158074533Y-103089133D02*
X158107867Y-103122466D01*
X158107867Y-103122466D02*
X158174533Y-103155800D01*
X158174533Y-103155800D02*
X158441200Y-103155800D01*
X157774533Y-102855800D02*
X157741200Y-102822466D01*
X157741200Y-102822466D02*
X157674533Y-102789133D01*
X157674533Y-102789133D02*
X157507867Y-102789133D01*
X157507867Y-102789133D02*
X157441200Y-102822466D01*
X157441200Y-102822466D02*
X157407867Y-102855800D01*
X157407867Y-102855800D02*
X157374533Y-102922466D01*
X157374533Y-102922466D02*
X157374533Y-102989133D01*
X157374533Y-102989133D02*
X157407867Y-103089133D01*
X157407867Y-103089133D02*
X157807867Y-103489133D01*
X157807867Y-103489133D02*
X157374533Y-103489133D01*
X160474666Y-88996933D02*
X160074666Y-88996933D01*
X160274666Y-89696933D02*
X160274666Y-88996933D01*
X159841333Y-89696933D02*
X159841333Y-88996933D01*
X159841333Y-88996933D02*
X159574666Y-88996933D01*
X159574666Y-88996933D02*
X159508000Y-89030266D01*
X159508000Y-89030266D02*
X159474666Y-89063600D01*
X159474666Y-89063600D02*
X159441333Y-89130266D01*
X159441333Y-89130266D02*
X159441333Y-89230266D01*
X159441333Y-89230266D02*
X159474666Y-89296933D01*
X159474666Y-89296933D02*
X159508000Y-89330266D01*
X159508000Y-89330266D02*
X159574666Y-89363600D01*
X159574666Y-89363600D02*
X159841333Y-89363600D01*
X158774666Y-89696933D02*
X159174666Y-89696933D01*
X158974666Y-89696933D02*
X158974666Y-88996933D01*
X158974666Y-88996933D02*
X159041333Y-89096933D01*
X159041333Y-89096933D02*
X159108000Y-89163600D01*
X159108000Y-89163600D02*
X159174666Y-89196933D01*
X158341333Y-88996933D02*
X158274666Y-88996933D01*
X158274666Y-88996933D02*
X158207999Y-89030266D01*
X158207999Y-89030266D02*
X158174666Y-89063600D01*
X158174666Y-89063600D02*
X158141333Y-89130266D01*
X158141333Y-89130266D02*
X158107999Y-89263600D01*
X158107999Y-89263600D02*
X158107999Y-89430266D01*
X158107999Y-89430266D02*
X158141333Y-89563600D01*
X158141333Y-89563600D02*
X158174666Y-89630266D01*
X158174666Y-89630266D02*
X158207999Y-89663600D01*
X158207999Y-89663600D02*
X158274666Y-89696933D01*
X158274666Y-89696933D02*
X158341333Y-89696933D01*
X158341333Y-89696933D02*
X158407999Y-89663600D01*
X158407999Y-89663600D02*
X158441333Y-89630266D01*
X158441333Y-89630266D02*
X158474666Y-89563600D01*
X158474666Y-89563600D02*
X158507999Y-89430266D01*
X158507999Y-89430266D02*
X158507999Y-89263600D01*
X158507999Y-89263600D02*
X158474666Y-89130266D01*
X158474666Y-89130266D02*
X158441333Y-89063600D01*
X158441333Y-89063600D02*
X158407999Y-89030266D01*
X158407999Y-89030266D02*
X158341333Y-88996933D01*
X122349466Y-101567333D02*
X122349466Y-100867333D01*
X122349466Y-100867333D02*
X122182799Y-100867333D01*
X122182799Y-100867333D02*
X122082799Y-100900666D01*
X122082799Y-100900666D02*
X122016133Y-100967333D01*
X122016133Y-100967333D02*
X121982799Y-101034000D01*
X121982799Y-101034000D02*
X121949466Y-101167333D01*
X121949466Y-101167333D02*
X121949466Y-101267333D01*
X121949466Y-101267333D02*
X121982799Y-101400666D01*
X121982799Y-101400666D02*
X122016133Y-101467333D01*
X122016133Y-101467333D02*
X122082799Y-101534000D01*
X122082799Y-101534000D02*
X122182799Y-101567333D01*
X122182799Y-101567333D02*
X122349466Y-101567333D01*
X121716133Y-100867333D02*
X121249466Y-100867333D01*
X121249466Y-100867333D02*
X121549466Y-101567333D01*
X122131866Y-97417533D02*
X122131866Y-96717533D01*
X122131866Y-96717533D02*
X121965199Y-96717533D01*
X121965199Y-96717533D02*
X121865199Y-96750866D01*
X121865199Y-96750866D02*
X121798533Y-96817533D01*
X121798533Y-96817533D02*
X121765199Y-96884200D01*
X121765199Y-96884200D02*
X121731866Y-97017533D01*
X121731866Y-97017533D02*
X121731866Y-97117533D01*
X121731866Y-97117533D02*
X121765199Y-97250866D01*
X121765199Y-97250866D02*
X121798533Y-97317533D01*
X121798533Y-97317533D02*
X121865199Y-97384200D01*
X121865199Y-97384200D02*
X121965199Y-97417533D01*
X121965199Y-97417533D02*
X122131866Y-97417533D01*
X121398533Y-97417533D02*
X121265199Y-97417533D01*
X121265199Y-97417533D02*
X121198533Y-97384200D01*
X121198533Y-97384200D02*
X121165199Y-97350866D01*
X121165199Y-97350866D02*
X121098533Y-97250866D01*
X121098533Y-97250866D02*
X121065199Y-97117533D01*
X121065199Y-97117533D02*
X121065199Y-96850866D01*
X121065199Y-96850866D02*
X121098533Y-96784200D01*
X121098533Y-96784200D02*
X121131866Y-96750866D01*
X121131866Y-96750866D02*
X121198533Y-96717533D01*
X121198533Y-96717533D02*
X121331866Y-96717533D01*
X121331866Y-96717533D02*
X121398533Y-96750866D01*
X121398533Y-96750866D02*
X121431866Y-96784200D01*
X121431866Y-96784200D02*
X121465199Y-96850866D01*
X121465199Y-96850866D02*
X121465199Y-97017533D01*
X121465199Y-97017533D02*
X121431866Y-97084200D01*
X121431866Y-97084200D02*
X121398533Y-97117533D01*
X121398533Y-97117533D02*
X121331866Y-97150866D01*
X121331866Y-97150866D02*
X121198533Y-97150866D01*
X121198533Y-97150866D02*
X121131866Y-97117533D01*
X121131866Y-97117533D02*
X121098533Y-97084200D01*
X121098533Y-97084200D02*
X121065199Y-97017533D01*
X124859967Y-80741020D02*
X124253750Y-80391020D01*
X124253750Y-80391020D02*
X124170416Y-80535358D01*
X124170416Y-80535358D02*
X124149284Y-80638627D01*
X124149284Y-80638627D02*
X124173685Y-80729695D01*
X124173685Y-80729695D02*
X124214754Y-80791896D01*
X124214754Y-80791896D02*
X124313557Y-80887430D01*
X124313557Y-80887430D02*
X124400160Y-80937430D01*
X124400160Y-80937430D02*
X124532296Y-80975229D01*
X124532296Y-80975229D02*
X124606698Y-80979695D01*
X124606698Y-80979695D02*
X124697767Y-80955293D01*
X124697767Y-80955293D02*
X124776634Y-80885358D01*
X124776634Y-80885358D02*
X124859967Y-80741020D01*
X123737083Y-81285913D02*
X123903750Y-80997238D01*
X123903750Y-80997238D02*
X124209091Y-81135037D01*
X124209091Y-81135037D02*
X124163557Y-81147238D01*
X124163557Y-81147238D02*
X124101356Y-81188306D01*
X124101356Y-81188306D02*
X124018023Y-81332644D01*
X124018023Y-81332644D02*
X124013557Y-81407045D01*
X124013557Y-81407045D02*
X124025758Y-81452580D01*
X124025758Y-81452580D02*
X124066826Y-81514780D01*
X124066826Y-81514780D02*
X124211164Y-81598114D01*
X124211164Y-81598114D02*
X124285566Y-81602580D01*
X124285566Y-81602580D02*
X124331100Y-81590379D01*
X124331100Y-81590379D02*
X124393301Y-81549310D01*
X124393301Y-81549310D02*
X124476634Y-81404973D01*
X124476634Y-81404973D02*
X124481100Y-81330571D01*
X124481100Y-81330571D02*
X124468899Y-81285037D01*
X144164733Y-106726133D02*
X143764733Y-106726133D01*
X143964733Y-107426133D02*
X143964733Y-106726133D01*
X143531400Y-107426133D02*
X143531400Y-106726133D01*
X143531400Y-106726133D02*
X143264733Y-106726133D01*
X143264733Y-106726133D02*
X143198067Y-106759466D01*
X143198067Y-106759466D02*
X143164733Y-106792800D01*
X143164733Y-106792800D02*
X143131400Y-106859466D01*
X143131400Y-106859466D02*
X143131400Y-106959466D01*
X143131400Y-106959466D02*
X143164733Y-107026133D01*
X143164733Y-107026133D02*
X143198067Y-107059466D01*
X143198067Y-107059466D02*
X143264733Y-107092800D01*
X143264733Y-107092800D02*
X143531400Y-107092800D01*
X142464733Y-107426133D02*
X142864733Y-107426133D01*
X142664733Y-107426133D02*
X142664733Y-106726133D01*
X142664733Y-106726133D02*
X142731400Y-106826133D01*
X142731400Y-106826133D02*
X142798067Y-106892800D01*
X142798067Y-106892800D02*
X142864733Y-106926133D01*
X155010533Y-92273533D02*
X154610533Y-92273533D01*
X154810533Y-92973533D02*
X154810533Y-92273533D01*
X154377200Y-92973533D02*
X154377200Y-92273533D01*
X154377200Y-92273533D02*
X154110533Y-92273533D01*
X154110533Y-92273533D02*
X154043867Y-92306866D01*
X154043867Y-92306866D02*
X154010533Y-92340200D01*
X154010533Y-92340200D02*
X153977200Y-92406866D01*
X153977200Y-92406866D02*
X153977200Y-92506866D01*
X153977200Y-92506866D02*
X154010533Y-92573533D01*
X154010533Y-92573533D02*
X154043867Y-92606866D01*
X154043867Y-92606866D02*
X154110533Y-92640200D01*
X154110533Y-92640200D02*
X154377200Y-92640200D01*
X153743867Y-92273533D02*
X153277200Y-92273533D01*
X153277200Y-92273533D02*
X153577200Y-92973533D01*
D11*
%TO.C,R56*%
X123391959Y-100610400D02*
X123699241Y-100610400D01*
X123391959Y-101370400D02*
X123699241Y-101370400D01*
%TO.C,TP3*%
X165846800Y-99695000D02*
G75*
G02*
X163946800Y-99695000I-950000J0D01*
G01*
X163946800Y-99695000D02*
G75*
G02*
X165846800Y-99695000I950000J0D01*
G01*
%TO.C,R58*%
X123366559Y-98476800D02*
X123673841Y-98476800D01*
X123366559Y-99236800D02*
X123673841Y-99236800D01*
%TO.C,R55*%
X123415359Y-101677200D02*
X123722641Y-101677200D01*
X123415359Y-102437200D02*
X123722641Y-102437200D01*
D12*
%TO.C,S2*%
X135177547Y-74023944D02*
X136927548Y-70992856D01*
X135922995Y-76532790D02*
X136822995Y-74973944D01*
X136226104Y-76707790D02*
X135922995Y-76532790D01*
X136822995Y-74973944D02*
X135177547Y-74023944D01*
X136927548Y-70992856D02*
X138572995Y-71942856D01*
D13*
X137236392Y-74057919D02*
X137756008Y-74357919D01*
D14*
X137441296Y-74003015D02*
X137441296Y-74003015D01*
X137491296Y-73916413D02*
X137772754Y-74078913D01*
X137541296Y-73829810D02*
X137441296Y-74003015D01*
X137616296Y-73699906D02*
X137716296Y-73526701D01*
X137716296Y-73526701D02*
X137976104Y-73676701D01*
D13*
X137756008Y-74357919D02*
X138506008Y-73058881D01*
D14*
X137866296Y-73266894D02*
X138126104Y-73416894D01*
X137876104Y-73849906D02*
X137616296Y-73699906D01*
X137941296Y-73136990D02*
X138041296Y-72963785D01*
X137976104Y-73676701D02*
X137876104Y-73849906D01*
D13*
X137986392Y-72758881D02*
X137236392Y-74057919D01*
D14*
X138041296Y-72963785D02*
X138171200Y-73038785D01*
X138071200Y-73211990D02*
X138201104Y-73286990D01*
X138126104Y-73416894D02*
X138026104Y-73590099D01*
X138171200Y-73038785D02*
X138071200Y-73211990D01*
X138201104Y-73286990D02*
X138301104Y-73113785D01*
D12*
X138304565Y-77907790D02*
X140209821Y-79007790D01*
D13*
X138506008Y-73058881D02*
X137986392Y-72758881D01*
D12*
X138572995Y-71942856D02*
X139472995Y-70384010D01*
X138645590Y-79317117D02*
X138645590Y-79317117D01*
X138745590Y-79143912D02*
X138745590Y-79143912D01*
X139472995Y-70384010D02*
X139776104Y-70559010D01*
X141854565Y-71759010D02*
X143759821Y-72859010D01*
X141913763Y-79356476D02*
X144913763Y-74160324D01*
X138645590Y-79317117D02*
G75*
G02*
X138745590Y-79143912I49999J86603D01*
G01*
X138745590Y-79143912D02*
G75*
G02*
X138645590Y-79317117I-50001J-86602D01*
G01*
D11*
%TO.C,TP8*%
X153908800Y-78359000D02*
G75*
G02*
X152008800Y-78359000I-950000J0D01*
G01*
X152008800Y-78359000D02*
G75*
G02*
X153908800Y-78359000I950000J0D01*
G01*
%TO.C,R57*%
X123366559Y-99543600D02*
X123673841Y-99543600D01*
X123366559Y-100303600D02*
X123673841Y-100303600D01*
%TO.C,D6*%
X118265000Y-103015000D02*
X120550000Y-103015000D01*
X118265000Y-104485000D02*
X118265000Y-103015000D01*
X120550000Y-104485000D02*
X118265000Y-104485000D01*
%TO.C,TP9*%
X162265400Y-77876400D02*
G75*
G02*
X160365400Y-77876400I-950000J0D01*
G01*
X160365400Y-77876400D02*
G75*
G02*
X162265400Y-77876400I950000J0D01*
G01*
%TO.C,TP5*%
X141132600Y-97028000D02*
G75*
G02*
X139232600Y-97028000I-950000J0D01*
G01*
X139232600Y-97028000D02*
G75*
G02*
X141132600Y-97028000I950000J0D01*
G01*
%TO.C,TP6*%
X133588800Y-89484200D02*
G75*
G02*
X131688800Y-89484200I-950000J0D01*
G01*
X131688800Y-89484200D02*
G75*
G02*
X133588800Y-89484200I950000J0D01*
G01*
%TO.C,D8*%
X118265000Y-98015000D02*
X120550000Y-98015000D01*
X118265000Y-99485000D02*
X118265000Y-98015000D01*
X120550000Y-99485000D02*
X118265000Y-99485000D01*
%TO.C,TP4*%
X126781600Y-107010200D02*
G75*
G02*
X124881600Y-107010200I-950000J0D01*
G01*
X124881600Y-107010200D02*
G75*
G02*
X126781600Y-107010200I950000J0D01*
G01*
%TO.C,D4*%
X128414971Y-69777948D02*
X129557471Y-67799080D01*
X129688029Y-70512948D02*
X128414971Y-69777948D01*
X130830529Y-68534080D02*
X129688029Y-70512948D01*
%TO.C,TP2*%
X159141200Y-101523800D02*
G75*
G02*
X157241200Y-101523800I-950000J0D01*
G01*
X157241200Y-101523800D02*
G75*
G02*
X159141200Y-101523800I950000J0D01*
G01*
%TO.C,TP10*%
X160208000Y-87731600D02*
G75*
G02*
X158308000Y-87731600I-950000J0D01*
G01*
X158308000Y-87731600D02*
G75*
G02*
X160208000Y-87731600I950000J0D01*
G01*
%TO.C,D7*%
X118265000Y-100515000D02*
X120550000Y-100515000D01*
X118265000Y-101985000D02*
X118265000Y-100515000D01*
X120550000Y-101985000D02*
X118265000Y-101985000D01*
%TO.C,D9*%
X118265000Y-95515000D02*
X120550000Y-95515000D01*
X118265000Y-96985000D02*
X118265000Y-95515000D01*
X120550000Y-96985000D02*
X118265000Y-96985000D01*
%TO.C,D5*%
X121709371Y-81233348D02*
X122851871Y-79254480D01*
X122982429Y-81968348D02*
X121709371Y-81233348D01*
X124124929Y-79989480D02*
X122982429Y-81968348D01*
%TO.C,TP1*%
X144231400Y-105460800D02*
G75*
G02*
X142331400Y-105460800I-950000J0D01*
G01*
X142331400Y-105460800D02*
G75*
G02*
X144231400Y-105460800I950000J0D01*
G01*
%TO.C,TP7*%
X155077200Y-91008200D02*
G75*
G02*
X153177200Y-91008200I-950000J0D01*
G01*
X153177200Y-91008200D02*
G75*
G02*
X155077200Y-91008200I950000J0D01*
G01*
%TD*%
M02*
